# This file uses centimeters as units for non-parametric coordinates.

mtllib DOOR.mtl
g default
v -4.546053 0.992483 -15.081812
v -4.594736 0.992483 -15.081812
v -4.619078 0.950322 -15.081812
v -4.594736 0.908161 -15.081812
v -4.546053 0.908161 -15.081812
v -4.521711 0.950322 -15.081812
v -4.546053 0.992483 -14.984446
v -4.594736 0.992483 -14.984446
v -4.619078 0.950322 -14.984446
v -4.594736 0.908161 -14.984446
v -4.546053 0.908161 -14.984446
v -4.521711 0.950322 -14.984446
v -4.570395 0.950322 -14.984446
v -3.401744 0.025471 -14.979235
v -3.273692 0.025471 -14.979235
v -3.401744 2.102407 -14.979235
v -3.273692 2.102407 -14.979235
v -3.401744 2.102407 -15.112417
v -3.273692 2.102407 -15.112417
v -3.401744 0.025471 -15.112417
v -3.273692 0.025471 -15.112417
v -4.854250 0.025471 -14.979235
v -4.726197 0.025471 -14.979235
v -4.854250 2.102407 -14.979235
v -4.726197 2.102407 -14.979235
v -4.854250 2.102407 -15.112417
v -4.726197 2.102407 -15.112417
v -4.854250 0.025471 -15.112417
v -4.726197 0.025471 -15.112417
v -5.576129 0.025471 -14.923975
v -2.593267 0.025471 -14.923975
v -5.576129 2.120224 -14.923975
v -2.593267 2.120224 -14.923975
v -5.576129 2.120224 -15.794289
v -2.593267 2.120224 -15.794289
v -5.576129 0.025471 -15.794289
v -2.593267 0.025471 -15.794289
v -5.426128 0.025471 -14.923975
v -2.743267 0.025471 -14.923975
v -2.743267 1.970224 -14.923975
v -5.426128 1.970224 -14.923975
v -5.426128 0.025471 -15.067308
v -2.743267 0.025471 -15.067308
v -2.743267 1.970224 -15.067308
v -5.426128 1.970224 -15.067308
v -4.654007 1.015850 -14.946465
v -4.654007 0.892491 -14.946465
v -3.531849 1.015850 -14.946465
v -3.531849 0.892491 -14.946465
v -3.531849 1.015850 -14.990810
v -3.531849 0.892491 -14.990810
v -4.654007 1.015850 -14.990810
v -4.654007 0.892491 -14.990810
v -3.574369 0.992483 -15.081812
v -3.623052 0.992483 -15.081812
v -3.647393 0.950322 -15.081812
v -3.623052 0.908161 -15.081812
v -3.574369 0.908161 -15.081812
v -3.550027 0.950322 -15.081812
v -3.574369 0.992483 -14.984446
v -3.623052 0.992483 -14.984446
v -3.647393 0.950322 -14.984446
v -3.623052 0.908161 -14.984446
v -3.574369 0.908161 -14.984446
v -3.550027 0.950322 -14.984446
v -3.598710 0.950322 -14.984446
vt 0.375000 0.312500
vt 0.416667 0.312500
vt 0.416667 0.688440
vt 0.375000 0.688440
vt 0.458333 0.312500
vt 0.458333 0.688440
vt 0.500000 0.312500
vt 0.500000 0.688440
vt 0.541667 0.312500
vt 0.541667 0.688440
vt 0.583333 0.312500
vt 0.583333 0.688440
vt 0.625000 0.312500
vt 0.625000 0.688440
vt 0.578125 0.979066
vt 0.421875 0.979066
vt 0.500000 0.837500
vt 0.343750 0.843750
vt 0.421875 0.708434
vt 0.578125 0.708434
vt 0.656250 0.843750
vt 0.375000 0.000000
vt 0.625000 0.000000
vt 0.625000 0.250000
vt 0.375000 0.250000
vt 0.875000 0.000000
vt 0.875000 0.250000
vt 0.125000 0.000000
vt 0.125000 0.250000
vt 0.375000 0.000000
vt 0.625000 0.000000
vt 0.625000 0.250000
vt 0.375000 0.250000
vt 0.875000 0.000000
vt 0.875000 0.250000
vt 0.125000 0.000000
vt 0.125000 0.250000
vt 0.375000 0.000000
vt 0.625000 0.000000
vt 0.625000 0.250000
vt 0.375000 0.250000
vt 0.375000 0.250000
vt 0.625000 0.250000
vt 0.625000 0.500000
vt 0.375000 0.500000
vt 0.625000 0.000000
vt 0.875000 0.000000
vt 0.875000 0.250000
vt 0.125000 0.000000
vt 0.375000 0.000000
vt 0.125000 0.250000
vt 0.625000 0.250000
vt 0.625000 0.000000
vt 0.375000 0.250000
vt 0.375000 0.000000
vt 0.375000 0.000000
vt 0.625000 0.000000
vt 0.625000 0.250000
vt 0.375000 0.250000
vt 0.875000 0.000000
vt 0.875000 0.250000
vt 0.125000 0.000000
vt 0.125000 0.250000
vt 0.000000 0.000000
vt 1.000000 0.000000
vt 1.000000 1.000000
vt 0.000000 1.000000
vt 0.000000 0.000000
vt 1.000000 0.000000
vt 1.000000 1.000000
vt 0.000000 1.000000
vt 0.000000 0.000000
vt 1.000000 0.000000
vt 1.000000 1.000000
vt 0.000000 1.000000
vt 0.375000 0.312500
vt 0.416667 0.312500
vt 0.416667 0.688440
vt 0.375000 0.688440
vt 0.458333 0.312500
vt 0.458333 0.688440
vt 0.500000 0.312500
vt 0.500000 0.688440
vt 0.541667 0.312500
vt 0.541667 0.688440
vt 0.583333 0.312500
vt 0.583333 0.688440
vt 0.625000 0.312500
vt 0.625000 0.688440
vt 0.578125 0.979066
vt 0.421875 0.979066
vt 0.500000 0.837500
vt 0.343750 0.843750
vt 0.421875 0.708434
vt 0.578125 0.708434
vt 0.656250 0.843750
vn 0.000000 1.000000 0.000000
vn 0.000000 1.000000 0.000000
vn 0.000000 1.000000 0.000000
vn 0.000000 1.000000 0.000000
vn -0.866024 0.500003 0.000000
vn -0.866024 0.500003 0.000000
vn -0.866024 0.500003 0.000000
vn -0.866024 0.500003 0.000000
vn -0.866024 -0.500003 0.000000
vn -0.866024 -0.500003 0.000000
vn -0.866024 -0.500003 0.000000
vn -0.866024 -0.500003 0.000000
vn 0.000000 -1.000000 0.000000
vn 0.000000 -1.000000 0.000000
vn 0.000000 -1.000000 0.000000
vn 0.000000 -1.000000 0.000000
vn 0.866024 -0.500003 0.000000
vn 0.866024 -0.500003 0.000000
vn 0.866024 -0.500003 0.000000
vn 0.866024 -0.500003 0.000000
vn 0.866024 0.500003 0.000000
vn 0.866024 0.500003 0.000000
vn 0.866024 0.500003 0.000000
vn 0.866024 0.500003 0.000000
vn 0.000000 0.000000 1.000000
vn 0.000000 0.000000 1.000000
vn 0.000000 0.000000 1.000000
vn 0.000000 0.000000 1.000000
vn 0.000000 0.000000 1.000000
vn 0.000000 0.000000 1.000000
vn 0.000000 0.000000 1.000000
vn 0.000000 0.000000 1.000000
vn 0.000000 0.000000 1.000000
vn 0.000000 0.000000 1.000000
vn 0.000000 0.000000 1.000000
vn 1.000000 0.000000 0.000000
vn 1.000000 0.000000 0.000000
vn 1.000000 0.000000 0.000000
vn 1.000000 0.000000 0.000000
vn -1.000000 0.000000 0.000000
vn -1.000000 0.000000 0.000000
vn -1.000000 0.000000 0.000000
vn -1.000000 0.000000 0.000000
vn 0.000000 0.000000 1.000000
vn 0.000000 0.000000 1.000000
vn 0.000000 0.000000 1.000000
vn 0.000000 0.000000 1.000000
vn 1.000000 0.000000 0.000000
vn 1.000000 0.000000 0.000000
vn 1.000000 0.000000 0.000000
vn 1.000000 0.000000 0.000000
vn -1.000000 0.000000 0.000000
vn -1.000000 0.000000 0.000000
vn -1.000000 0.000000 0.000000
vn -1.000000 0.000000 0.000000
vn 0.000000 0.000000 1.000000
vn 0.000000 0.000000 1.000000
vn 0.000000 0.000000 1.000000
vn 0.000000 0.000000 1.000000
vn 0.000000 1.000000 0.000000
vn 0.000000 1.000000 0.000000
vn 0.000000 1.000000 0.000000
vn 0.000000 1.000000 0.000000
vn 1.000000 0.000000 0.000000
vn 1.000000 0.000000 0.000000
vn 1.000000 0.000000 0.000000
vn 1.000000 0.000000 0.000000
vn -1.000000 0.000000 0.000000
vn -1.000000 0.000000 0.000000
vn -1.000000 0.000000 0.000000
vn -1.000000 0.000000 0.000000
vn 0.000005 0.000000 1.000000
vn 0.000002 0.000000 1.000000
vn 0.000002 0.000000 1.000000
vn 0.000005 0.000000 1.000000
vn -0.000003 0.000000 1.000000
vn -0.000003 0.000000 1.000000
vn -0.000006 0.000000 1.000000
vn -0.000006 0.000000 1.000000
vn -1.000000 0.000000 0.000000
vn -1.000000 0.000000 0.000000
vn -1.000000 0.000000 0.000000
vn -1.000000 0.000000 0.000000
vn 0.000000 -1.000000 0.000000
vn 0.000000 -1.000000 0.000000
vn 0.000000 -1.000000 0.000000
vn 0.000000 -1.000000 0.000000
vn 1.000000 0.000000 0.000000
vn 1.000000 0.000000 0.000000
vn 1.000000 0.000000 0.000000
vn 1.000000 0.000000 0.000000
vn 0.000000 0.000000 1.000000
vn 0.000000 0.000000 1.000000
vn 0.000000 0.000000 1.000000
vn 0.000000 0.000000 1.000000
vn 0.000000 -1.000000 0.000000
vn 0.000000 -1.000000 0.000000
vn 0.000000 -1.000000 0.000000
vn 0.000000 -1.000000 0.000000
vn 0.000000 1.000000 0.000000
vn 0.000000 1.000000 0.000000
vn 0.000000 1.000000 0.000000
vn 0.000000 1.000000 0.000000
vn -1.000000 0.000000 0.000000
vn -1.000000 0.000000 0.000000
vn -1.000000 0.000000 0.000000
vn -1.000000 0.000000 0.000000
vn 1.000000 0.000000 0.000000
vn 1.000000 0.000000 0.000000
vn 1.000000 0.000000 0.000000
vn 1.000000 0.000000 0.000000
vn 0.000000 0.000000 -1.000000
vn 0.000000 0.000000 -1.000000
vn 0.000000 0.000000 -1.000000
vn 0.000000 0.000000 -1.000000
vn 0.000000 1.000000 0.000000
vn 0.000000 1.000000 0.000000
vn 0.000000 1.000000 0.000000
vn 0.000000 1.000000 0.000000
vn -0.866027 0.499998 0.000000
vn -0.866027 0.499998 0.000000
vn -0.866027 0.499998 0.000000
vn -0.866027 0.499998 0.000000
vn -0.866027 -0.499998 0.000000
vn -0.866027 -0.499998 0.000000
vn -0.866027 -0.499998 0.000000
vn -0.866027 -0.499998 0.000000
vn 0.000000 -1.000000 0.000000
vn 0.000000 -1.000000 0.000000
vn 0.000000 -1.000000 0.000000
vn 0.000000 -1.000000 0.000000
vn 0.866024 -0.500003 0.000000
vn 0.866024 -0.500003 0.000000
vn 0.866024 -0.500003 0.000000
vn 0.866024 -0.500003 0.000000
vn 0.866024 0.500003 0.000000
vn 0.866024 0.500003 0.000000
vn 0.866024 0.500003 0.000000
vn 0.866024 0.500003 0.000000
vn 0.000000 0.000000 1.000000
vn 0.000000 0.000000 1.000000
vn 0.000000 0.000000 1.000000
vn 0.000000 0.000000 1.000000
vn 0.000000 0.000000 1.000000
vn 0.000000 0.000000 1.000000
vn 0.000000 0.000000 1.000000
s off
g polySurface172
usemtl phong8SG
f 1/1/1 2/2/2 8/3/3 7/4/4
f 2/2/5 3/5/6 9/6/7 8/3/8
f 3/5/9 4/7/10 10/8/11 9/6/12
f 4/7/13 5/9/14 11/10/15 10/8/16
f 5/9/17 6/11/18 12/12/19 11/10/20
f 6/11/21 1/13/22 7/14/23 12/12/24
s 1
f 7/15/25 8/16/26 13/17/27
f 8/16/26 9/18/28 13/17/27
f 9/18/28 10/19/29 13/17/27
f 10/19/29 11/20/30 13/17/27
f 11/20/30 12/21/31 13/17/27
f 12/21/31 7/15/25 13/17/27
s off
f 14/22/32 15/23/33 17/24/34 16/25/35
f 15/23/36 21/26/37 19/27/38 17/24/39
f 20/28/40 14/22/41 16/25/42 18/29/43
f 22/30/44 23/31/45 25/32/46 24/33/47
f 23/31/48 29/34/49 27/35/50 25/32/51
f 28/36/52 22/30/53 24/33/54 26/37/55
usemtl phong9SG
f 42/38/56 43/39/57 44/40/58 45/41/59
usemtl initialShadingGroup
f 32/42/60 33/43/61 35/44/62 34/45/63
usemtl phong8SG
f 31/46/64 37/47/65 35/48/66 33/43/67
f 36/49/68 30/50/69 32/42/70 34/51/71
s 2
f 31/46/72 33/43/73 40/52/74 39/53/75
f 33/43/73 32/42/76 41/54/77 40/52/74
f 32/42/76 30/50/78 38/55/79 41/54/77
s off
f 39/53/80 40/52/81 44/40/82 43/39/83
f 40/52/84 41/54/85 45/41/86 44/40/87
f 41/54/88 38/55/89 42/38/90 45/41/91
f 46/56/92 47/57/93 49/58/94 48/59/95
f 47/57/96 53/60/97 51/61/98 49/58/99
f 52/62/100 46/56/101 48/59/102 50/63/103
f 46/64/104 52/65/105 53/66/106 47/67/107
f 50/68/108 48/69/109 49/70/110 51/71/111
f 52/72/112 50/73/113 51/74/114 53/75/115
f 54/76/116 55/77/117 61/78/118 60/79/119
f 55/77/120 56/80/121 62/81/122 61/78/123
f 56/80/124 57/82/125 63/83/126 62/81/127
f 57/82/128 58/84/129 64/85/130 63/83/131
f 58/84/132 59/86/133 65/87/134 64/85/135
f 59/86/136 54/88/137 60/89/138 65/87/139
s 3
f 60/90/140 61/91/141 66/92/142
f 61/91/141 62/93/143 66/92/142
f 62/93/143 63/94/144 66/92/142
f 63/94/144 64/95/145 66/92/142
f 64/95/145 65/96/146 66/92/142
f 65/96/146 60/90/140 66/92/142
