# This file uses centimeters as units for non-parametric coordinates.

mtllib extra_Street_Lamp.mtl
g default
v 10.984480 0.000000 -23.796183
v 10.962120 0.000000 -23.840067
v 10.927295 0.000000 -23.874891
v 10.883411 0.000000 -23.897251
v 10.834766 0.000000 -23.904957
v 10.786122 0.000000 -23.897251
v 10.742239 0.000000 -23.874891
v 10.707413 0.000000 -23.840067
v 10.685054 0.000000 -23.796183
v 10.677349 0.000000 -23.747538
v 10.685054 0.000000 -23.698895
v 10.707413 0.000000 -23.655010
v 10.742239 0.000000 -23.620186
v 10.786122 0.000000 -23.597826
v 10.834766 0.000000 -23.590120
v 10.883411 0.000000 -23.597826
v 10.927295 0.000000 -23.620186
v 10.962120 0.000000 -23.655010
v 10.984480 0.000000 -23.698895
v 10.992185 0.000000 -23.747538
v 10.984480 9.350630 -23.796183
v 10.962120 9.350630 -23.840067
v 10.927295 9.350630 -23.874891
v 10.883411 9.350630 -23.897251
v 10.834766 9.350630 -23.904957
v 10.786122 9.350630 -23.897251
v 10.742239 9.350630 -23.874891
v 10.707413 9.350630 -23.840067
v 10.685054 9.350630 -23.796183
v 10.677349 9.350630 -23.747538
v 10.685054 9.350630 -23.698895
v 10.707413 9.350630 -23.655010
v 10.742239 9.350630 -23.620186
v 10.786122 9.350630 -23.597826
v 10.834766 9.350630 -23.590120
v 10.883411 9.350630 -23.597826
v 10.927295 9.350630 -23.620186
v 10.962120 9.350630 -23.655010
v 10.984480 9.350630 -23.698895
v 10.992185 9.350630 -23.747538
v 10.834766 0.000000 -23.747538
v 10.834766 9.350630 -23.747538
v 10.619799 9.459637 -23.969957
v 10.619799 9.391372 -23.959145
v 10.619799 9.329788 -23.927767
v 10.619799 9.280916 -23.878895
v 10.619799 9.249537 -23.817310
v 10.619799 9.238726 -23.749046
v 10.619799 9.249537 -23.680780
v 10.619799 9.280916 -23.619198
v 10.619799 9.329788 -23.570326
v 10.619799 9.391372 -23.538946
v 10.619799 9.459637 -23.528135
v 10.020216 9.459637 -23.969957
v 10.020216 9.391372 -23.959145
v 10.020216 9.329788 -23.927767
v 10.020216 9.280916 -23.878895
v 10.020216 9.249537 -23.817310
v 10.020216 9.238726 -23.749046
v 10.020216 9.249537 -23.680780
v 10.020216 9.280916 -23.619198
v 10.020216 9.329788 -23.570326
v 10.020216 9.391372 -23.538946
v 10.020216 9.459637 -23.528135
v 10.619799 9.459637 -23.749046
v 10.020216 9.459637 -23.749046
v 9.878824 9.350630 -23.503284
v 11.015959 9.350630 -23.503284
v 9.895445 9.439463 -23.503284
v 11.015959 9.682573 -23.503284
v 9.895445 9.439463 -23.991793
v 11.015959 9.682573 -23.991793
v 9.878824 9.350630 -23.991793
v 11.015959 9.350630 -23.991793
v 10.288229 9.605844 -23.503284
v 10.288229 9.605844 -23.991793
v 10.304851 9.350630 -23.991793
v 10.304851 9.350630 -23.503284
v 10.663258 9.682573 -23.503284
v 10.663258 9.682573 -23.991793
v 10.663258 9.350630 -23.991793
v 10.663258 9.350630 -23.503284
vt 0.375000 0.312500
vt 0.387500 0.312500
vt 0.387500 0.688440
vt 0.375000 0.688440
vt 0.400000 0.312500
vt 0.400000 0.688440
vt 0.412500 0.312500
vt 0.412500 0.688440
vt 0.425000 0.312500
vt 0.425000 0.688440
vt 0.437500 0.312500
vt 0.437500 0.688440
vt 0.450000 0.312500
vt 0.450000 0.688440
vt 0.462500 0.312500
vt 0.462500 0.688440
vt 0.475000 0.312500
vt 0.475000 0.688440
vt 0.487500 0.312500
vt 0.487500 0.688440
vt 0.500000 0.312500
vt 0.500000 0.688440
vt 0.512500 0.312500
vt 0.512500 0.688440
vt 0.525000 0.312500
vt 0.525000 0.688440
vt 0.537500 0.312500
vt 0.537500 0.688440
vt 0.550000 0.312500
vt 0.550000 0.688440
vt 0.562500 0.312500
vt 0.562500 0.688440
vt 0.575000 0.312500
vt 0.575000 0.688440
vt 0.587500 0.312500
vt 0.587500 0.688440
vt 0.600000 0.312500
vt 0.600000 0.688440
vt 0.612500 0.312500
vt 0.612500 0.688440
vt 0.625000 0.312500
vt 0.625000 0.688440
vt 0.626409 0.064408
vt 0.648603 0.107966
vt 0.500000 0.150000
vt 0.591842 0.029841
vt 0.548284 0.007647
vt 0.500000 -0.000000
vt 0.451716 0.007647
vt 0.408159 0.029841
vt 0.373591 0.064409
vt 0.351397 0.107966
vt 0.343750 0.156250
vt 0.351397 0.204534
vt 0.373591 0.248091
vt 0.408159 0.282659
vt 0.451716 0.304853
vt 0.500000 0.312500
vt 0.548284 0.304853
vt 0.591841 0.282659
vt 0.626409 0.248091
vt 0.648603 0.204534
vt 0.656250 0.156250
vt 0.648603 0.892034
vt 0.626409 0.935591
vt 0.500000 0.837500
vt 0.591841 0.970159
vt 0.548284 0.992353
vt 0.500000 1.000000
vt 0.451716 0.992353
vt 0.408159 0.970159
vt 0.373591 0.935591
vt 0.351397 0.892034
vt 0.343750 0.843750
vt 0.351397 0.795466
vt 0.373591 0.751909
vt 0.408159 0.717341
vt 0.451716 0.695147
vt 0.500000 0.687500
vt 0.548284 0.695147
vt 0.591842 0.717341
vt 0.626409 0.751908
vt 0.648603 0.795466
vt 0.656250 0.843750
vt 0.425000 0.312500
vt 0.437500 0.312500
vt 0.437500 0.688440
vt 0.425000 0.688440
vt 0.450000 0.312500
vt 0.450000 0.688440
vt 0.462500 0.312500
vt 0.462500 0.688440
vt 0.475000 0.312500
vt 0.475000 0.688440
vt 0.487500 0.312500
vt 0.487500 0.688440
vt 0.500000 0.312500
vt 0.500000 0.688440
vt 0.512500 0.312500
vt 0.512500 0.688440
vt 0.525000 0.312500
vt 0.525000 0.688440
vt 0.537500 0.312500
vt 0.537500 0.688440
vt 0.550000 0.312500
vt 0.550000 0.688440
vt 0.451716 0.007647
vt 0.500000 -0.000000
vt 0.500000 0.150000
vt 0.408159 0.029841
vt 0.373591 0.064409
vt 0.351397 0.107966
vt 0.343750 0.156250
vt 0.351397 0.204534
vt 0.373591 0.248091
vt 0.408159 0.282659
vt 0.451716 0.304853
vt 0.500000 0.312500
vt 0.500000 1.000000
vt 0.451716 0.992353
vt 0.500000 0.837500
vt 0.408159 0.970159
vt 0.373591 0.935591
vt 0.351397 0.892034
vt 0.343750 0.843750
vt 0.351397 0.795466
vt 0.373591 0.751909
vt 0.408159 0.717341
vt 0.451716 0.695147
vt 0.500000 0.687500
vt 0.375000 0.000000
vt 0.468662 0.000000
vt 0.468662 0.250000
vt 0.375000 0.250000
vt 0.468662 0.500000
vt 0.375000 0.500000
vt 0.468662 0.750000
vt 0.375000 0.750000
vt 0.468662 1.000000
vt 0.375000 1.000000
vt 0.625000 0.000000
vt 0.875000 0.000000
vt 0.875000 0.250000
vt 0.625000 0.250000
vt 0.125000 0.000000
vt 0.125000 0.250000
vt 0.547458 0.250000
vt 0.547458 0.500000
vt 0.547458 0.750000
vt 0.547458 1.000000
vt 0.547458 0.000000
vt 0.625000 0.500000
vt 0.625000 0.750000
vt 0.625000 1.000000
vn 0.951058 0.000000 -0.309013
vn 0.809018 0.000000 -0.587784
vn 0.809018 0.000000 -0.587784
vn 0.951058 0.000000 -0.309013
vn 0.587772 0.000000 -0.809027
vn 0.587772 0.000000 -0.809027
vn 0.309025 0.000000 -0.951054
vn 0.309025 0.000000 -0.951054
vn -0.000000 0.000000 -1.000000
vn -0.000000 0.000000 -1.000000
vn -0.309028 0.000000 -0.951053
vn -0.309028 0.000000 -0.951053
vn -0.587767 0.000000 -0.809030
vn -0.587767 0.000000 -0.809030
vn -0.809018 0.000000 -0.587784
vn -0.809018 0.000000 -0.587784
vn -0.951061 0.000000 -0.309004
vn -0.951061 0.000000 -0.309004
vn -1.000000 0.000000 0.000000
vn -1.000000 0.000000 0.000000
vn -0.951057 0.000000 0.309014
vn -0.951057 0.000000 0.309014
vn -0.809018 0.000000 0.587784
vn -0.809018 0.000000 0.587784
vn -0.587767 0.000000 0.809030
vn -0.587767 0.000000 0.809030
vn -0.309028 0.000000 0.951053
vn -0.309028 0.000000 0.951053
vn -0.000000 0.000000 1.000000
vn -0.000000 0.000000 1.000000
vn 0.309025 0.000000 0.951054
vn 0.309025 0.000000 0.951054
vn 0.587772 0.000000 0.809027
vn 0.587772 0.000000 0.809027
vn 0.809018 0.000000 0.587784
vn 0.809018 0.000000 0.587784
vn 0.951055 0.000000 0.309023
vn 0.951055 0.000000 0.309023
vn 1.000000 0.000000 0.000000
vn 1.000000 0.000000 0.000000
vn 0.000000 -1.000000 0.000000
vn 0.000000 -1.000000 0.000000
vn 0.000000 -1.000000 0.000000
vn 0.000000 -1.000000 0.000000
vn 0.000000 -1.000000 0.000000
vn 0.000000 -1.000000 0.000000
vn 0.000000 -1.000000 0.000000
vn 0.000000 -1.000000 0.000000
vn 0.000000 -1.000000 0.000000
vn 0.000000 -1.000000 0.000000
vn 0.000000 -1.000000 0.000000
vn 0.000000 -1.000000 0.000000
vn 0.000000 -1.000000 0.000000
vn 0.000000 -1.000000 0.000000
vn 0.000000 -1.000000 0.000000
vn 0.000000 -1.000000 0.000000
vn 0.000000 -1.000000 0.000000
vn 0.000000 -1.000000 0.000000
vn 0.000000 -1.000000 0.000000
vn 0.000000 -1.000000 0.000000
vn 0.000000 -1.000000 0.000000
vn 0.000000 1.000000 0.000000
vn 0.000000 1.000000 -0.000016
vn 0.000000 1.000000 -0.000001
vn 0.000000 1.000000 -0.000016
vn 0.000000 1.000000 0.000000
vn 0.000000 1.000000 0.000000
vn 0.000000 1.000000 -0.000004
vn 0.000000 1.000000 -0.000004
vn 0.000000 1.000000 0.000000
vn 0.000000 1.000000 0.000000
vn 0.000000 1.000000 0.000000
vn 0.000000 1.000000 0.000000
vn 0.000000 1.000000 0.000000
vn 0.000000 1.000000 0.000008
vn 0.000000 1.000000 0.000008
vn 0.000000 1.000000 0.000000
vn 0.000000 1.000000 -0.000004
vn 0.000000 1.000000 0.000004
vn 0.000000 1.000000 0.000008
vn 0.000000 1.000000 0.000000
vn 0.000000 1.000000 0.000000
vn 0.000000 -0.156443 -0.987687
vn 0.000000 -0.309018 -0.951056
vn 0.000000 -0.309018 -0.951056
vn 0.000000 -0.156443 -0.987687
vn 0.000000 -0.587783 -0.809019
vn 0.000000 -0.587783 -0.809019
vn 0.000000 -0.809018 -0.587784
vn 0.000000 -0.809018 -0.587784
vn 0.000000 -0.951055 -0.309023
vn 0.000000 -0.951055 -0.309023
vn 0.000000 -1.000000 0.000000
vn 0.000000 -1.000000 0.000000
vn 0.000000 -0.951054 0.309023
vn 0.000000 -0.951054 0.309023
vn 0.000000 -0.809013 0.587791
vn 0.000000 -0.809013 0.587791
vn 0.000000 -0.587792 0.809012
vn 0.000000 -0.587792 0.809012
vn 0.000000 -0.309018 0.951056
vn 0.000000 -0.309018 0.951056
vn 0.000000 -0.156416 0.987691
vn 0.000000 -0.156416 0.987691
vn 1.000000 -0.000008 0.000000
vn 1.000000 -0.000032 0.000000
vn 1.000000 -0.000004 0.000000
vn 1.000000 0.000008 0.000000
vn 1.000000 0.000004 0.000000
vn 1.000000 0.000004 0.000000
vn 1.000000 0.000000 0.000000
vn 1.000000 0.000000 0.000000
vn 1.000000 0.000000 0.000000
vn 1.000000 0.000000 0.000000
vn 1.000000 -0.000016 0.000000
vn 1.000000 -0.000032 0.000000
vn -1.000000 -0.000032 0.000000
vn -1.000000 -0.000016 0.000000
vn -1.000000 -0.000007 0.000000
vn -1.000000 0.000000 0.000000
vn -1.000000 0.000000 0.000000
vn -1.000000 0.000000 0.000000
vn -1.000000 0.000000 0.000000
vn -1.000000 -0.000004 0.000000
vn -1.000000 -0.000004 0.000000
vn -1.000000 0.000000 0.000000
vn -1.000000 -0.000016 0.000000
vn -1.000000 -0.000032 0.000000
vn 0.000000 0.000000 1.000000
vn -0.000001 0.000000 1.000000
vn -0.000002 0.000000 1.000000
vn 0.000000 0.000000 1.000000
vn -0.390045 0.920796 0.000000
vn -0.301858 0.953353 0.000000
vn -0.301858 0.953353 0.000000
vn -0.390045 0.920796 0.000000
vn 0.000000 0.000000 -1.000000
vn -0.000003 0.000000 -1.000000
vn -0.000003 0.000000 -1.000000
vn 0.000000 0.000000 -1.000000
vn 0.000000 -1.000000 0.000000
vn 0.000000 -1.000000 0.000000
vn 0.000000 -1.000000 0.000000
vn 0.000000 -1.000000 0.000000
vn 1.000000 0.000000 0.000000
vn 1.000000 0.000000 0.000000
vn 1.000000 0.000000 0.000000
vn 1.000000 0.000000 0.000000
vn -0.982942 0.183915 0.000000
vn -0.982942 0.183915 0.000000
vn -0.982942 0.183915 0.000000
vn -0.982942 0.183915 0.000000
vn -0.104855 0.994488 0.000000
vn -0.104855 0.994488 0.000000
vn -0.000002 0.000000 -1.000000
vn -0.000002 0.000000 -1.000000
vn 0.000000 -1.000000 0.000000
vn 0.000000 -1.000000 0.000000
vn -0.000001 0.000000 1.000000
vn -0.000001 0.000000 1.000000
vn 0.000000 1.000000 0.000000
vn 0.000000 1.000000 0.000000
vn 0.000000 0.000000 -1.000000
vn 0.000000 0.000000 -1.000000
vn 0.000000 -1.000000 0.000000
vn 0.000000 -1.000000 0.000000
vn 0.000000 0.000000 1.000000
vn 0.000000 0.000000 1.000000
s 1
g polySurface117
usemtl phong8SG
f 1/1/1 2/2/2 22/3/3 21/4/4
f 2/2/2 3/5/5 23/6/6 22/3/3
f 3/5/5 4/7/7 24/8/8 23/6/6
f 4/7/7 5/9/9 25/10/10 24/8/8
f 5/9/9 6/11/11 26/12/12 25/10/10
f 6/11/11 7/13/13 27/14/14 26/12/12
f 7/13/13 8/15/15 28/16/16 27/14/14
f 8/15/15 9/17/17 29/18/18 28/16/16
f 9/17/17 10/19/19 30/20/20 29/18/18
f 10/19/19 11/21/21 31/22/22 30/20/20
f 11/21/21 12/23/23 32/24/24 31/22/22
f 12/23/23 13/25/25 33/26/26 32/24/24
f 13/25/25 14/27/27 34/28/28 33/26/26
f 14/27/27 15/29/29 35/30/30 34/28/28
f 15/29/29 16/31/31 36/32/32 35/30/30
f 16/31/31 17/33/33 37/34/34 36/32/32
f 17/33/33 18/35/35 38/36/36 37/34/34
f 18/35/35 19/37/37 39/38/38 38/36/36
f 19/37/37 20/39/39 40/40/40 39/38/38
f 20/39/39 1/41/1 21/42/4 40/40/40
s 2
f 2/43/41 1/44/42 41/45/43
f 3/46/44 2/43/41 41/45/43
f 4/47/45 3/46/44 41/45/43
f 5/48/46 4/47/45 41/45/43
f 6/49/47 5/48/46 41/45/43
f 7/50/48 6/49/47 41/45/43
f 8/51/49 7/50/48 41/45/43
f 9/52/50 8/51/49 41/45/43
f 10/53/51 9/52/50 41/45/43
f 11/54/52 10/53/51 41/45/43
f 12/55/53 11/54/52 41/45/43
f 13/56/54 12/55/53 41/45/43
f 14/57/55 13/56/54 41/45/43
f 15/58/56 14/57/55 41/45/43
f 16/59/57 15/58/56 41/45/43
f 17/60/58 16/59/57 41/45/43
f 18/61/59 17/60/58 41/45/43
f 19/62/60 18/61/59 41/45/43
f 20/63/61 19/62/60 41/45/43
f 1/44/42 20/63/61 41/45/43
s 3
f 21/64/62 22/65/63 42/66/64
f 22/65/63 23/67/65 42/66/64
f 23/67/65 24/68/66 42/66/64
f 24/68/66 25/69/67 42/66/64
f 25/69/67 26/70/68 42/66/64
f 26/70/68 27/71/69 42/66/64
f 27/71/69 28/72/70 42/66/64
f 28/72/70 29/73/71 42/66/64
f 29/73/71 30/74/72 42/66/64
f 30/74/72 31/75/73 42/66/64
f 31/75/73 32/76/74 42/66/64
f 32/76/74 33/77/75 42/66/64
f 33/77/75 34/78/76 42/66/64
f 34/78/76 35/79/77 42/66/64
f 35/79/77 36/80/78 42/66/64
f 36/80/78 37/81/79 42/66/64
f 37/81/79 38/82/80 42/66/64
f 38/82/80 39/83/81 42/66/64
f 39/83/81 40/84/82 42/66/64
f 40/84/82 21/64/62 42/66/64
s 4
usemtl phong3SG
f 43/85/83 44/86/84 55/87/85 54/88/86
f 44/86/84 45/89/87 56/90/88 55/87/85
f 45/89/87 46/91/89 57/92/90 56/90/88
f 46/91/89 47/93/91 58/94/92 57/92/90
f 47/93/91 48/95/93 59/96/94 58/94/92
f 48/95/93 49/97/95 60/98/96 59/96/94
f 49/97/95 50/99/97 61/100/98 60/98/96
f 50/99/97 51/101/99 62/102/100 61/100/98
f 51/101/99 52/103/101 63/104/102 62/102/100
f 52/103/101 53/105/103 64/106/104 63/104/102
s 5
f 44/107/105 43/108/106 65/109/107
f 45/110/108 44/107/105 65/109/107
f 46/111/109 45/110/108 65/109/107
f 47/112/110 46/111/109 65/109/107
f 48/113/111 47/112/110 65/109/107
f 49/114/112 48/113/111 65/109/107
f 50/115/113 49/114/112 65/109/107
f 51/116/114 50/115/113 65/109/107
f 52/117/115 51/116/114 65/109/107
f 53/118/116 52/117/115 65/109/107
s 6
f 54/119/117 55/120/118 66/121/119
f 55/120/118 56/122/120 66/121/119
f 56/122/120 57/123/121 66/121/119
f 57/123/121 58/124/122 66/121/119
f 58/124/122 59/125/123 66/121/119
f 59/125/123 60/126/124 66/121/119
f 60/126/124 61/127/125 66/121/119
f 61/127/125 62/128/126 66/121/119
f 62/128/126 63/129/127 66/121/119
f 63/129/127 64/130/128 66/121/119
s 7
usemtl phong12SG
f 67/131/129 78/132/130 75/133/131 69/134/132
s 8
f 69/134/133 75/133/134 76/135/135 71/136/136
s 9
f 71/136/137 76/135/138 77/137/139 73/138/140
s 10
f 73/138/141 77/137/142 78/139/143 67/140/144
s off
f 68/141/145 74/142/146 72/143/147 70/144/148
f 73/145/149 67/131/150 69/134/151 71/146/152
s 8
f 75/133/134 79/147/153 80/148/154 76/135/135
s 9
f 77/137/139 76/135/138 80/148/155 81/149/156
s 10
f 78/139/143 77/137/142 81/149/157 82/150/158
s 7
f 75/133/131 78/132/130 82/151/159 79/147/160
s 8
f 79/147/153 70/144/161 72/152/162 80/148/154
s 9
f 81/149/156 80/148/155 72/152/163 74/153/164
s 10
f 82/150/158 81/149/157 74/153/165 68/154/166
s 7
f 79/147/160 82/151/159 68/141/167 70/144/168
