# This file uses centimeters as units for non-parametric coordinates.

mtllib Big_Bin_Bin.mtl
g default
v 11.717533 0.239129 -22.591446
v 15.514220 0.239129 -22.591446
v 11.717533 2.169611 -22.591446
v 15.514220 2.169611 -22.591446
v 11.717533 2.169611 -24.903630
v 15.514220 2.169611 -24.903630
v 11.717533 0.239129 -24.903630
v 15.514220 0.239129 -24.903630
v 13.615876 2.169611 -22.591446
v 13.615876 2.169611 -24.903630
v 13.615876 0.239129 -24.903630
v 13.615876 0.239129 -22.591446
v 11.717533 2.169611 -24.596040
v 11.717533 0.239129 -24.132902
v 13.615876 0.239129 -24.132902
v 15.514220 0.239129 -24.132902
v 15.514220 2.169611 -24.132902
v 13.615876 2.169611 -24.596040
v 11.717533 2.169611 -22.748430
v 11.717533 0.239129 -23.362174
v 13.615876 0.239129 -23.362174
v 15.514220 0.239129 -23.362174
v 15.514220 2.169611 -23.362174
v 13.615876 2.169611 -22.748430
v 13.615876 3.738668 -22.753823
v 11.717533 3.738668 -22.753823
v 11.458099 0.000000 -22.433450
v 13.615876 0.000000 -22.433450
v 13.615876 2.194308 -22.433450
v 11.458099 2.194308 -22.433450
v 13.615876 2.194308 -22.611888
v 11.458099 2.194308 -22.611888
v 11.458099 2.194308 -25.061625
v 13.615876 2.194308 -25.061625
v 13.615876 0.000000 -25.061625
v 11.458099 0.000000 -25.061625
v 11.458099 0.000000 -23.309509
v 13.615876 0.000000 -23.309509
v 15.773654 0.000000 -23.309509
v 15.773654 0.000000 -22.433450
v 15.773654 2.194308 -23.309509
v 15.773654 2.194308 -22.433450
v 15.773654 2.194308 -25.061625
v 15.773654 0.000000 -25.061625
v 11.458099 0.000000 -24.185567
v 11.458099 2.194308 -24.711999
v 13.615876 0.000000 -24.185567
v 15.773654 0.000000 -24.185567
v 15.773654 2.194308 -24.185567
v 13.615876 2.194308 -24.711999
v 11.458099 3.977797 -22.618018
v 13.615876 3.977797 -22.618018
vt 0.375000 0.000000
vt 0.625000 0.000000
vt 0.375000 0.250000
vt 0.625000 0.250000
vt 0.375000 0.500000
vt 0.625000 0.500000
vt 0.375000 0.750000
vt 0.625000 0.750000
vt 0.375000 1.000000
vt 0.625000 1.000000
vt 0.875000 0.000000
vt 0.875000 0.250000
vt 0.125000 0.000000
vt 0.125000 0.250000
vt 0.500000 0.250000
vt 0.500000 0.500000
vt 0.500000 0.750000
vt 0.500000 0.000000
vt 0.500000 1.000000
vt 0.208333 0.250000
vt 0.375000 0.416667
vt 0.208333 0.000000
vt 0.375000 0.833333
vt 0.500000 0.833333
vt 0.625000 0.833333
vt 0.791667 0.000000
vt 0.625000 0.416667
vt 0.791667 0.250000
vt 0.500000 0.416667
vt 0.291667 0.250000
vt 0.375000 0.333333
vt 0.291667 0.000000
vt 0.375000 0.916667
vt 0.500000 0.916667
vt 0.625000 0.916667
vt 0.708333 0.000000
vt 0.625000 0.333333
vt 0.708333 0.250000
vt 0.500000 0.333333
vt 0.000000 0.000000
vt 1.000000 0.000000
vt 1.000000 1.000000
vt 0.000000 1.000000
vt 0.375000 0.000000
vt 0.500000 0.000000
vt 0.500000 0.250000
vt 0.375000 0.250000
vt 0.500000 0.333333
vt 0.375000 0.333333
vt 0.375000 0.500000
vt 0.500000 0.500000
vt 0.500000 0.750000
vt 0.375000 0.750000
vt 0.375000 0.916667
vt 0.500000 0.916667
vt 0.500000 1.000000
vt 0.375000 1.000000
vt 0.625000 0.000000
vt 0.708333 0.000000
vt 0.708333 0.250000
vt 0.625000 0.250000
vt 0.291667 0.000000
vt 0.291667 0.250000
vt 0.625000 0.333333
vt 0.625000 0.500000
vt 0.625000 0.750000
vt 0.625000 0.916667
vt 0.625000 1.000000
vt 0.125000 0.000000
vt 0.208333 0.000000
vt 0.208333 0.250000
vt 0.125000 0.250000
vt 0.500000 0.833333
vt 0.375000 0.833333
vt 0.625000 0.833333
vt 0.791667 0.250000
vt 0.791667 0.000000
vt 0.875000 0.000000
vt 0.875000 0.250000
vt 0.500000 0.416667
vt 0.625000 0.416667
vt 0.375000 0.416667
vt 0.000000 0.000000
vt 1.000000 0.000000
vt 1.000000 1.000000
vt 0.000000 1.000000
vt 0.500000 0.333333
vt 0.375000 0.333333
vt 0.291667 0.250000
vt 0.208333 0.250000
vt 0.500000 0.416667
vt 1.000000 0.000000
vt 1.000000 1.000000
vt 0.000000 1.000000
vt 0.000000 0.000000
vn 0.000000 0.000000 1.000000
vn 0.000000 0.000000 1.000000
vn 0.000000 0.000000 1.000000
vn 0.000000 0.000000 1.000000
vn 0.000000 1.000000 0.000000
vn 0.000000 1.000000 0.000000
vn 0.000000 1.000000 0.000000
vn 0.000000 1.000000 0.000000
vn 0.000000 0.000000 -1.000000
vn 0.000000 0.000000 -1.000000
vn 0.000000 0.000000 -1.000000
vn 0.000000 0.000000 -1.000000
vn 0.000000 -1.000000 0.000000
vn 0.000000 -1.000000 0.000000
vn 0.000000 -1.000000 0.000000
vn 0.000000 -1.000000 0.000000
vn 1.000000 0.000000 0.000000
vn 1.000000 0.000000 0.000000
vn 1.000000 0.000000 0.000000
vn 1.000000 0.000000 0.000000
vn -1.000000 0.000000 0.000000
vn -1.000000 0.000000 0.000000
vn -1.000000 0.000000 0.000000
vn -1.000000 0.000000 0.000000
vn 0.000000 1.000000 0.000000
vn 0.000000 1.000000 0.000000
vn 0.000000 0.000000 -1.000000
vn 0.000000 0.000000 -1.000000
vn 0.000000 -1.000000 0.000000
vn 0.000000 -1.000000 0.000000
vn 0.000000 0.000000 1.000000
vn 0.000000 0.000000 1.000000
vn -1.000000 0.000000 0.000000
vn -1.000000 0.000000 0.000000
vn -1.000000 0.000000 0.000000
vn -1.000000 0.000000 0.000000
vn 0.000000 -1.000000 0.000000
vn 0.000000 -1.000000 0.000000
vn 0.000000 -1.000000 0.000000
vn 0.000000 -1.000000 0.000000
vn 0.000000 -1.000000 0.000000
vn 0.000000 -1.000000 0.000000
vn 1.000000 0.000000 0.000000
vn 1.000000 0.000000 0.000000
vn 1.000000 0.000000 0.000000
vn 1.000000 0.000000 0.000000
vn 0.000000 1.000000 0.000000
vn 0.000000 1.000000 0.000000
vn 0.000000 1.000000 0.000000
vn 0.000000 1.000000 0.000000
vn 0.000000 1.000000 0.000000
vn 0.000000 1.000000 0.000000
vn 0.000000 0.761292 -0.648409
vn 0.000000 0.761292 -0.648409
vn 0.000000 0.761292 -0.648409
vn 0.000000 0.761292 -0.648409
vn 0.000000 0.000000 -1.000000
vn 0.000000 0.000000 -1.000000
vn 0.000000 0.000000 -1.000000
vn 0.000000 0.000000 -1.000000
vn 0.000000 -1.000000 0.000000
vn 0.000000 -1.000000 0.000000
vn 0.000000 -1.000000 0.000000
vn 0.000000 -1.000000 0.000000
vn 0.000000 0.000000 1.000000
vn 0.000000 0.000000 1.000000
vn 0.000000 0.000000 1.000000
vn 0.000000 0.000000 1.000000
vn 0.000000 1.000000 0.000000
vn 0.000000 1.000000 0.000000
vn 0.000000 1.000000 0.000000
vn 0.000000 1.000000 0.000000
vn -1.000000 0.000000 0.000000
vn -1.000000 0.000000 0.000000
vn -1.000000 0.000000 0.000000
vn -1.000000 0.000000 0.000000
vn 1.000000 0.000000 0.000000
vn 1.000000 0.000000 0.000000
vn 1.000000 0.000000 0.000000
vn 1.000000 0.000000 0.000000
vn 0.000000 -1.000000 0.000000
vn 0.000000 -1.000000 0.000000
vn 0.000000 0.000000 1.000000
vn 0.000000 0.000000 1.000000
vn 0.000000 1.000000 0.000000
vn 0.000000 1.000000 0.000000
vn 0.000000 0.000000 -1.000000
vn 0.000000 0.000000 -1.000000
vn 1.000000 0.000000 0.000000
vn 1.000000 0.000000 0.000000
vn 1.000000 0.000000 0.000000
vn 1.000000 0.000000 0.000000
vn 0.000000 1.000000 0.000000
vn 0.000000 1.000000 0.000000
vn 0.000000 1.000000 0.000000
vn 0.000000 1.000000 0.000000
vn 0.000000 1.000000 0.000000
vn 0.000000 1.000000 0.000000
vn -1.000000 0.000000 0.000000
vn -1.000000 0.000000 0.000000
vn -1.000000 0.000000 0.000000
vn -1.000000 0.000000 0.000000
vn 0.000000 -1.000000 0.000000
vn 0.000000 -1.000000 0.000000
vn 0.000000 -1.000000 0.000000
vn 0.000000 -1.000000 0.000000
vn 0.000000 -1.000000 0.000000
vn 0.000000 -1.000000 0.000000
vn 0.000000 -0.761292 0.648409
vn 0.000000 -0.761292 0.648409
vn 0.000000 -0.761292 0.648409
vn 0.000000 -0.761292 0.648409
vn 0.000000 0.984033 -0.177986
vn 0.000000 0.984033 -0.177986
vn 0.000000 0.984033 -0.177986
vn 0.000000 0.984033 -0.177986
vn 0.094766 0.995500 0.000000
vn 0.094766 0.995500 0.000000
vn 0.094766 0.995500 0.000000
vn 0.094766 0.995500 0.000000
vn -1.000000 -0.000004 0.000000
vn -1.000000 -0.000004 0.000000
vn -1.000000 -0.000004 0.000000
vn -1.000000 -0.000004 0.000000
vn -0.340625 -0.715766 0.609634
vn -0.340625 -0.715766 0.609634
vn -0.340625 -0.715766 0.609634
vn -0.340625 -0.715766 0.609634
vn 0.000000 -0.493832 0.869557
vn 0.000000 -0.493832 0.869557
vn 0.000000 -0.493832 0.869557
vn 0.000000 -0.493832 0.869557
vn 1.000000 0.000001 -0.000001
vn 1.000000 0.000001 -0.000001
vn 1.000000 0.000001 -0.000001
vn 1.000000 0.000001 -0.000001
s 1
g pCube41
usemtl initialShadingGroup
f 27/1/1 28/18/2 29/15/3 30/3/4
s 2
f 30/3/5 29/15/6 31/87/7 32/88/8
s 3
f 33/5/9 34/16/10 35/17/11 36/7/12
s 4
f 37/33/13 38/34/14 28/19/15 27/9/16
s 5
f 40/2/17 39/36/18 41/38/19 42/4/20
s 6
f 37/32/21 27/1/22 30/3/23 32/89/24
s 2
f 29/15/6 42/4/25 41/37/26 31/87/7
s 3
f 35/17/11 34/16/10 43/6/27 44/8/28
s 4
f 28/19/15 38/34/14 39/35/29 40/10/30
s 1
f 29/15/3 28/18/2 40/2/31 42/4/32
s 6
f 36/13/33 45/22/34 46/90/35 33/14/36
s 4
f 36/7/37 35/17/38 47/24/39 45/23/40
f 48/25/41 47/24/39 35/17/38 44/8/42
s 5
f 49/28/43 48/26/44 44/11/45 43/12/46
s 2
f 50/91/47 49/27/48 43/6/49 34/16/50
f 46/21/51 50/91/47 34/16/50 33/5/52
s 6
f 45/22/34 37/32/21 32/89/24 46/90/35
s 4
f 45/23/40 47/24/39 38/34/14 37/33/13
f 39/35/29 38/34/14 47/24/39 48/25/41
s 5
f 41/38/19 39/36/18 48/26/44 49/28/43
s 2
f 31/87/7 41/37/26 49/27/48 50/91/47
s off
f 50/95/53 46/92/54 51/93/55 52/94/56
s 8
f 1/44/57 3/47/58 9/46/59 12/45/60
s 9
f 3/47/61 19/49/62 24/48/63 9/46/64
s 10
f 5/50/65 7/53/66 11/52/67 10/51/68
s 11
f 20/54/69 1/57/70 12/56/71 21/55/72
s 12
f 2/58/73 4/61/74 23/60/75 22/59/76
s 13
f 20/62/77 19/63/78 3/47/79 1/44/80
s 9
f 9/46/64 24/48/63 23/64/81 4/61/82
s 10
f 11/52/67 8/66/83 6/65/84 10/51/68
s 11
f 12/56/71 2/68/85 22/67/86 21/55/72
s 8
f 9/46/59 4/61/87 2/58/88 12/45/60
s 13
f 7/69/89 5/72/90 13/71/91 14/70/92
s 11
f 7/53/93 14/74/94 15/73/95 11/52/96
f 16/75/97 8/66/98 11/52/96 15/73/95
s 12
f 17/76/99 6/79/100 8/78/101 16/77/102
s 9
f 18/80/103 10/51/104 6/65/105 17/81/106
f 13/82/107 5/50/108 10/51/104 18/80/103
s 13
f 14/70/92 13/71/91 19/63/78 20/62/77
s 11
f 14/74/94 20/54/69 21/55/72 15/73/95
f 22/67/86 16/75/97 15/73/95 21/55/72
s 12
f 23/60/75 17/76/99 16/77/102 22/59/76
s 9
f 24/48/63 18/80/103 17/81/106 23/64/81
s off
f 18/83/109 25/86/110 26/85/111 13/84/112
f 24/39/113 19/31/114 32/88/115 31/87/116
f 19/30/117 13/20/118 46/90/119 32/89/120
f 18/29/121 24/39/122 31/87/123 50/91/124
f 13/41/125 26/42/126 51/93/127 46/92/128
f 26/42/129 25/43/130 52/94/131 51/93/132
f 25/43/133 18/40/134 50/95/135 52/94/136
