# This file uses centimeters as units for non-parametric coordinates.

mtllib Lampost_Extra.mtl
g default
v 9.878824 9.350630 -23.503284
v 11.015959 9.350630 -23.503284
v 9.895445 9.439463 -23.503284
v 11.015959 9.682573 -23.503284
v 9.895445 9.439463 -23.991791
v 11.015959 9.682573 -23.991791
v 9.878824 9.350630 -23.991791
v 11.015959 9.350630 -23.991791
v 10.288229 9.605844 -23.503284
v 10.288229 9.605844 -23.991791
v 10.304851 9.350630 -23.991791
v 10.304851 9.350630 -23.503284
v 10.663257 9.682573 -23.503284
v 10.663257 9.682573 -23.991791
v 10.663257 9.350630 -23.991791
v 10.663257 9.350630 -23.503284
v 10.619799 9.459637 -23.969956
v 10.619799 9.391372 -23.959144
v 10.619799 9.329788 -23.927766
v 10.619799 9.280916 -23.878893
v 10.619799 9.249537 -23.817310
v 10.619799 9.238726 -23.749045
v 10.619799 9.249537 -23.680780
v 10.619799 9.280916 -23.619197
v 10.619799 9.329788 -23.570324
v 10.619799 9.391372 -23.538946
v 10.619799 9.459637 -23.528134
v 10.020216 9.459637 -23.969956
v 10.020216 9.391372 -23.959144
v 10.020216 9.329788 -23.927766
v 10.020216 9.280916 -23.878893
v 10.020216 9.249537 -23.817310
v 10.020216 9.238726 -23.749045
v 10.020216 9.249537 -23.680780
v 10.020216 9.280916 -23.619197
v 10.020216 9.329788 -23.570324
v 10.020216 9.391372 -23.538946
v 10.020216 9.459637 -23.528134
v 10.619799 9.459637 -23.749045
v 10.020216 9.459637 -23.749045
v 10.984480 0.000000 -23.796182
v 10.962121 0.000000 -23.840065
v 10.927295 0.000000 -23.874891
v 10.883411 0.000000 -23.897251
v 10.834767 0.000000 -23.904955
v 10.786122 0.000000 -23.897251
v 10.742239 0.000000 -23.874891
v 10.707413 0.000000 -23.840065
v 10.685054 0.000000 -23.796182
v 10.677349 0.000000 -23.747538
v 10.685054 0.000000 -23.698893
v 10.707413 0.000000 -23.655010
v 10.742239 0.000000 -23.620184
v 10.786122 0.000000 -23.597825
v 10.834767 0.000000 -23.590120
v 10.883411 0.000000 -23.597825
v 10.927295 0.000000 -23.620184
v 10.962121 0.000000 -23.655010
v 10.984480 0.000000 -23.698893
v 10.992185 0.000000 -23.747538
v 10.984480 9.350630 -23.796182
v 10.962121 9.350630 -23.840065
v 10.927295 9.350630 -23.874891
v 10.883411 9.350630 -23.897251
v 10.834767 9.350630 -23.904955
v 10.786122 9.350630 -23.897251
v 10.742239 9.350630 -23.874891
v 10.707413 9.350630 -23.840065
v 10.685054 9.350630 -23.796182
v 10.677349 9.350630 -23.747538
v 10.685054 9.350630 -23.698893
v 10.707413 9.350630 -23.655010
v 10.742239 9.350630 -23.620184
v 10.786122 9.350630 -23.597825
v 10.834767 9.350630 -23.590120
v 10.883411 9.350630 -23.597825
v 10.927295 9.350630 -23.620184
v 10.962121 9.350630 -23.655010
v 10.984480 9.350630 -23.698893
v 10.992185 9.350630 -23.747538
v 10.834767 0.000000 -23.747538
v 10.834767 9.350630 -23.747538
vt 0.375000 0.000000
vt 0.625000 0.000000
vt 0.375000 0.250000
vt 0.625000 0.250000
vt 0.375000 0.500000
vt 0.625000 0.500000
vt 0.375000 0.750000
vt 0.625000 0.750000
vt 0.375000 1.000000
vt 0.625000 1.000000
vt 0.875000 0.000000
vt 0.875000 0.250000
vt 0.125000 0.000000
vt 0.125000 0.250000
vt 0.468662 0.250000
vt 0.468662 0.500000
vt 0.468662 0.750000
vt 0.468662 0.000000
vt 0.468662 1.000000
vt 0.547458 0.250000
vt 0.547458 0.500000
vt 0.547458 0.750000
vt 0.547458 0.000000
vt 0.547458 1.000000
vt 0.425000 0.312500
vt 0.437500 0.312500
vt 0.437500 0.688440
vt 0.425000 0.688440
vt 0.450000 0.312500
vt 0.450000 0.688440
vt 0.462500 0.312500
vt 0.462500 0.688440
vt 0.475000 0.312500
vt 0.475000 0.688440
vt 0.487500 0.312500
vt 0.487500 0.688440
vt 0.500000 0.312500
vt 0.500000 0.688440
vt 0.512500 0.312500
vt 0.512500 0.688440
vt 0.525000 0.312500
vt 0.525000 0.688440
vt 0.537500 0.312500
vt 0.537500 0.688440
vt 0.550000 0.312500
vt 0.550000 0.688440
vt 0.451716 0.007647
vt 0.500000 -0.000000
vt 0.500000 0.150000
vt 0.408159 0.029841
vt 0.373591 0.064409
vt 0.351397 0.107966
vt 0.343750 0.156250
vt 0.351397 0.204534
vt 0.373591 0.248091
vt 0.408159 0.282659
vt 0.451716 0.304853
vt 0.500000 0.312500
vt 0.500000 1.000000
vt 0.451716 0.992353
vt 0.500000 0.837500
vt 0.408159 0.970159
vt 0.373591 0.935591
vt 0.351397 0.892034
vt 0.343750 0.843750
vt 0.351397 0.795466
vt 0.373591 0.751909
vt 0.408159 0.717341
vt 0.451716 0.695147
vt 0.500000 0.687500
vt 0.375000 0.312500
vt 0.387500 0.312500
vt 0.387500 0.688440
vt 0.375000 0.688440
vt 0.400000 0.312500
vt 0.400000 0.688440
vt 0.412500 0.312500
vt 0.412500 0.688440
vt 0.425000 0.312500
vt 0.425000 0.688440
vt 0.437500 0.312500
vt 0.437500 0.688440
vt 0.450000 0.312500
vt 0.450000 0.688440
vt 0.462500 0.312500
vt 0.462500 0.688440
vt 0.475000 0.312500
vt 0.475000 0.688440
vt 0.487500 0.312500
vt 0.487500 0.688440
vt 0.500000 0.312500
vt 0.500000 0.688440
vt 0.512500 0.312500
vt 0.512500 0.688440
vt 0.525000 0.312500
vt 0.525000 0.688440
vt 0.537500 0.312500
vt 0.537500 0.688440
vt 0.550000 0.312500
vt 0.550000 0.688440
vt 0.562500 0.312500
vt 0.562500 0.688440
vt 0.575000 0.312500
vt 0.575000 0.688440
vt 0.587500 0.312500
vt 0.587500 0.688440
vt 0.600000 0.312500
vt 0.600000 0.688440
vt 0.612500 0.312500
vt 0.612500 0.688440
vt 0.625000 0.312500
vt 0.625000 0.688440
vt 0.626409 0.064408
vt 0.648603 0.107966
vt 0.500000 0.150000
vt 0.591842 0.029841
vt 0.548284 0.007647
vt 0.500000 -0.000000
vt 0.451716 0.007647
vt 0.408159 0.029841
vt 0.373591 0.064409
vt 0.351397 0.107966
vt 0.343750 0.156250
vt 0.351397 0.204534
vt 0.373591 0.248091
vt 0.408159 0.282659
vt 0.451716 0.304853
vt 0.500000 0.312500
vt 0.548284 0.304853
vt 0.591841 0.282659
vt 0.626409 0.248091
vt 0.648603 0.204534
vt 0.656250 0.156250
vt 0.648603 0.892034
vt 0.626409 0.935591
vt 0.500000 0.837500
vt 0.591841 0.970159
vt 0.548284 0.992353
vt 0.500000 1.000000
vt 0.451716 0.992353
vt 0.408159 0.970159
vt 0.373591 0.935591
vt 0.351397 0.892034
vt 0.343750 0.843750
vt 0.351397 0.795466
vt 0.373591 0.751909
vt 0.408159 0.717341
vt 0.451716 0.695147
vt 0.500000 0.687500
vt 0.548284 0.695147
vt 0.591842 0.717341
vt 0.626409 0.751908
vt 0.648603 0.795466
vt 0.656250 0.843750
vn 0.000000 0.000000 1.000000
vn 0.000000 0.000000 1.000000
vn 0.000000 0.000000 1.000000
vn 0.000000 0.000000 1.000000
vn -0.390046 0.920795 0.000000
vn -0.301858 0.953353 0.000000
vn -0.301858 0.953353 0.000000
vn -0.390046 0.920795 0.000000
vn 0.000000 0.000000 -1.000000
vn 0.000000 0.000000 -1.000000
vn 0.000000 0.000000 -1.000000
vn 0.000000 0.000000 -1.000000
vn 0.000000 -1.000000 0.000000
vn 0.000000 -1.000000 0.000000
vn 0.000000 -1.000000 0.000000
vn 0.000000 -1.000000 0.000000
vn 1.000000 0.000000 0.000000
vn 1.000000 0.000000 0.000000
vn 1.000000 0.000000 0.000000
vn 1.000000 0.000000 0.000000
vn -0.982941 0.183920 0.000000
vn -0.982941 0.183920 0.000000
vn -0.982941 0.183920 0.000000
vn -0.982941 0.183920 0.000000
vn -0.104855 0.994488 0.000000
vn -0.104855 0.994488 0.000000
vn 0.000000 0.000000 -1.000000
vn 0.000000 0.000000 -1.000000
vn 0.000000 -1.000000 0.000000
vn 0.000000 -1.000000 0.000000
vn 0.000000 0.000000 1.000000
vn 0.000000 0.000000 1.000000
vn 0.000000 1.000000 0.000000
vn 0.000000 1.000000 0.000000
vn 0.000000 0.000000 -1.000000
vn 0.000000 0.000000 -1.000000
vn 0.000000 -1.000000 0.000000
vn 0.000000 -1.000000 0.000000
vn 0.000000 0.000000 1.000000
vn 0.000000 0.000000 1.000000
vn 0.000000 -0.156434 -0.987688
vn 0.000000 -0.309016 -0.951057
vn 0.000000 -0.309016 -0.951057
vn 0.000000 -0.156434 -0.987688
vn 0.000000 -0.587787 -0.809016
vn 0.000000 -0.587787 -0.809016
vn 0.000000 -0.809016 -0.587787
vn 0.000000 -0.809016 -0.587787
vn 0.000000 -0.951054 -0.309024
vn 0.000000 -0.951054 -0.309024
vn 0.000000 -1.000000 0.000000
vn 0.000000 -1.000000 0.000000
vn 0.000000 -0.951054 0.309024
vn 0.000000 -0.951054 0.309024
vn 0.000000 -0.809015 0.587788
vn 0.000000 -0.809015 0.587788
vn 0.000000 -0.587787 0.809016
vn 0.000000 -0.587787 0.809016
vn 0.000000 -0.309016 0.951057
vn 0.000000 -0.309016 0.951057
vn 0.000000 -0.156434 0.987688
vn 0.000000 -0.156434 0.987688
vn 1.000000 0.000008 0.000000
vn 1.000000 0.000016 0.000000
vn 1.000000 0.000004 0.000000
vn 1.000000 0.000000 0.000000
vn 1.000000 0.000002 0.000000
vn 1.000000 0.000002 0.000000
vn 1.000000 0.000000 0.000000
vn 1.000000 0.000000 0.000000
vn 1.000000 0.000000 0.000000
vn 1.000000 0.000008 0.000000
vn 1.000000 0.000008 0.000000
vn 1.000000 0.000000 0.000000
vn -1.000000 0.000000 0.000000
vn -1.000000 0.000000 0.000000
vn -1.000000 -0.000000 0.000000
vn -1.000000 0.000000 0.000000
vn -1.000000 0.000000 0.000000
vn -1.000000 0.000000 0.000000
vn -1.000000 0.000000 0.000000
vn -1.000000 -0.000002 0.000000
vn -1.000000 -0.000002 0.000000
vn -1.000000 0.000000 0.000000
vn -1.000000 0.000000 0.000000
vn -1.000000 0.000000 0.000000
vn 0.951057 0.000000 -0.309017
vn 0.809018 0.000000 -0.587784
vn 0.809018 0.000000 -0.587784
vn 0.951057 0.000000 -0.309017
vn 0.587784 0.000000 -0.809018
vn 0.587784 0.000000 -0.809018
vn 0.309016 0.000000 -0.951057
vn 0.309016 0.000000 -0.951057
vn -0.000001 0.000000 -1.000000
vn -0.000001 0.000000 -1.000000
vn -0.309017 0.000000 -0.951057
vn -0.309017 0.000000 -0.951057
vn -0.587784 0.000000 -0.809018
vn -0.587784 0.000000 -0.809018
vn -0.809018 0.000000 -0.587785
vn -0.809018 0.000000 -0.587785
vn -0.951057 0.000000 -0.309017
vn -0.951057 0.000000 -0.309017
vn -1.000000 0.000000 0.000000
vn -1.000000 0.000000 0.000000
vn -0.951057 0.000000 0.309017
vn -0.951057 0.000000 0.309017
vn -0.809018 0.000000 0.587785
vn -0.809018 0.000000 0.587785
vn -0.587783 0.000000 0.809018
vn -0.587783 0.000000 0.809018
vn -0.309017 0.000000 0.951057
vn -0.309017 0.000000 0.951057
vn 0.000000 0.000000 1.000000
vn 0.000000 0.000000 1.000000
vn 0.309017 0.000000 0.951057
vn 0.309017 0.000000 0.951057
vn 0.587783 0.000000 0.809018
vn 0.587783 0.000000 0.809018
vn 0.809018 0.000000 0.587785
vn 0.809018 0.000000 0.587785
vn 0.951057 0.000000 0.309017
vn 0.951057 0.000000 0.309017
vn 1.000000 0.000000 0.000000
vn 1.000000 0.000000 0.000000
vn 0.000000 -1.000000 0.000000
vn 0.000000 -1.000000 0.000000
vn 0.000000 -1.000000 0.000000
vn 0.000000 -1.000000 0.000000
vn 0.000000 -1.000000 0.000000
vn 0.000000 -1.000000 0.000000
vn 0.000000 -1.000000 0.000000
vn 0.000000 -1.000000 0.000000
vn 0.000000 -1.000000 0.000000
vn 0.000000 -1.000000 0.000000
vn 0.000000 -1.000000 0.000000
vn 0.000000 -1.000000 0.000000
vn 0.000000 -1.000000 0.000000
vn 0.000000 -1.000000 0.000000
vn 0.000000 -1.000000 0.000000
vn 0.000000 -1.000000 0.000000
vn 0.000000 -1.000000 0.000000
vn 0.000000 -1.000000 0.000000
vn 0.000000 -1.000000 0.000000
vn 0.000000 -1.000000 0.000000
vn 0.000000 -1.000000 0.000000
vn 0.000000 1.000000 0.000000
vn 0.000000 1.000000 0.000000
vn 0.000000 1.000000 -0.000000
vn 0.000000 1.000000 0.000000
vn 0.000000 1.000000 0.000000
vn 0.000000 1.000000 0.000000
vn 0.000000 1.000000 -0.000004
vn 0.000000 1.000000 -0.000004
vn 0.000000 1.000000 0.000016
vn 0.000000 1.000000 0.000016
vn 0.000000 1.000000 0.000000
vn 0.000000 1.000000 0.000000
vn 0.000000 1.000000 0.000000
vn 0.000000 1.000000 0.000000
vn 0.000000 1.000000 0.000000
vn 0.000000 1.000000 0.000000
vn 0.000000 1.000000 0.000004
vn 0.000000 1.000000 0.000004
vn 0.000000 1.000000 -0.000016
vn 0.000000 1.000000 -0.000016
vn 0.000000 1.000000 0.000000
s 1
g pCube40
usemtl initialShadingGroup
f 1/1/1 12/18/2 9/15/3 3/3/4
s 2
f 3/3/5 9/15/6 10/16/7 5/5/8
s 3
f 5/5/9 10/16/10 11/17/11 7/7/12
s 4
f 7/7/13 11/17/14 12/19/15 1/9/16
s off
f 2/2/17 8/11/18 6/12/19 4/4/20
f 7/13/21 1/1/22 3/3/23 5/14/24
s 2
f 9/15/6 13/20/25 14/21/26 10/16/7
s 3
f 11/17/11 10/16/10 14/21/27 15/22/28
s 4
f 12/19/15 11/17/14 15/22/29 16/24/30
s 1
f 9/15/3 12/18/2 16/23/31 13/20/32
s 2
f 13/20/25 4/4/33 6/6/34 14/21/26
s 3
f 15/22/28 14/21/27 6/6/35 8/8/36
s 4
f 16/24/30 15/22/29 8/8/37 2/10/38
s 1
f 13/20/32 16/23/31 2/2/39 4/4/40
s 5
f 17/25/41 18/26/42 29/27/43 28/28/44
f 18/26/42 19/29/45 30/30/46 29/27/43
f 19/29/45 20/31/47 31/32/48 30/30/46
f 20/31/47 21/33/49 32/34/50 31/32/48
f 21/33/49 22/35/51 33/36/52 32/34/50
f 22/35/51 23/37/53 34/38/54 33/36/52
f 23/37/53 24/39/55 35/40/56 34/38/54
f 24/39/55 25/41/57 36/42/58 35/40/56
f 25/41/57 26/43/59 37/44/60 36/42/58
f 26/43/59 27/45/61 38/46/62 37/44/60
s 6
f 18/47/63 17/48/64 39/49/65
f 19/50/66 18/47/63 39/49/65
f 20/51/67 19/50/66 39/49/65
f 21/52/68 20/51/67 39/49/65
f 22/53/69 21/52/68 39/49/65
f 23/54/70 22/53/69 39/49/65
f 24/55/71 23/54/70 39/49/65
f 25/56/72 24/55/71 39/49/65
f 26/57/73 25/56/72 39/49/65
f 27/58/74 26/57/73 39/49/65
s 7
f 28/59/75 29/60/76 40/61/77
f 29/60/76 30/62/78 40/61/77
f 30/62/78 31/63/79 40/61/77
f 31/63/79 32/64/80 40/61/77
f 32/64/80 33/65/81 40/61/77
f 33/65/81 34/66/82 40/61/77
f 34/66/82 35/67/83 40/61/77
f 35/67/83 36/68/84 40/61/77
f 36/68/84 37/69/85 40/61/77
f 37/69/85 38/70/86 40/61/77
s 8
f 41/71/87 42/72/88 62/73/89 61/74/90
f 42/72/88 43/75/91 63/76/92 62/73/89
f 43/75/91 44/77/93 64/78/94 63/76/92
f 44/77/93 45/79/95 65/80/96 64/78/94
f 45/79/95 46/81/97 66/82/98 65/80/96
f 46/81/97 47/83/99 67/84/100 66/82/98
f 47/83/99 48/85/101 68/86/102 67/84/100
f 48/85/101 49/87/103 69/88/104 68/86/102
f 49/87/103 50/89/105 70/90/106 69/88/104
f 50/89/105 51/91/107 71/92/108 70/90/106
f 51/91/107 52/93/109 72/94/110 71/92/108
f 52/93/109 53/95/111 73/96/112 72/94/110
f 53/95/111 54/97/113 74/98/114 73/96/112
f 54/97/113 55/99/115 75/100/116 74/98/114
f 55/99/115 56/101/117 76/102/118 75/100/116
f 56/101/117 57/103/119 77/104/120 76/102/118
f 57/103/119 58/105/121 78/106/122 77/104/120
f 58/105/121 59/107/123 79/108/124 78/106/122
f 59/107/123 60/109/125 80/110/126 79/108/124
f 60/109/125 41/111/87 61/112/90 80/110/126
s 9
f 42/113/127 41/114/128 81/115/129
f 43/116/130 42/113/127 81/115/129
f 44/117/131 43/116/130 81/115/129
f 45/118/132 44/117/131 81/115/129
f 46/119/133 45/118/132 81/115/129
f 47/120/134 46/119/133 81/115/129
f 48/121/135 47/120/134 81/115/129
f 49/122/136 48/121/135 81/115/129
f 50/123/137 49/122/136 81/115/129
f 51/124/138 50/123/137 81/115/129
f 52/125/139 51/124/138 81/115/129
f 53/126/140 52/125/139 81/115/129
f 54/127/141 53/126/140 81/115/129
f 55/128/142 54/127/141 81/115/129
f 56/129/143 55/128/142 81/115/129
f 57/130/144 56/129/143 81/115/129
f 58/131/145 57/130/144 81/115/129
f 59/132/146 58/131/145 81/115/129
f 60/133/147 59/132/146 81/115/129
f 41/114/128 60/133/147 81/115/129
s 10
f 61/134/148 62/135/149 82/136/150
f 62/135/149 63/137/151 82/136/150
f 63/137/151 64/138/152 82/136/150
f 64/138/152 65/139/153 82/136/150
f 65/139/153 66/140/154 82/136/150
f 66/140/154 67/141/155 82/136/150
f 67/141/155 68/142/156 82/136/150
f 68/142/156 69/143/157 82/136/150
f 69/143/157 70/144/158 82/136/150
f 70/144/158 71/145/159 82/136/150
f 71/145/159 72/146/160 82/136/150
f 72/146/160 73/147/161 82/136/150
f 73/147/161 74/148/162 82/136/150
f 74/148/162 75/149/163 82/136/150
f 75/149/163 76/150/164 82/136/150
f 76/150/164 77/151/165 82/136/150
f 77/151/165 78/152/166 82/136/150
f 78/152/166 79/153/167 82/136/150
f 79/153/167 80/154/168 82/136/150
f 80/154/168 61/134/148 82/136/150
