# This file uses centimeters as units for non-parametric coordinates.

mtllib Traffic_Cone_Extra.mtl
g default
v 20.400679 0.022712 -23.867752
v 20.342360 0.022860 -23.976200
v 20.251524 0.023090 -24.062263
v 20.137064 0.023380 -24.117521
v 20.010185 0.023701 -24.136560
v 19.883307 0.024023 -24.117521
v 19.768847 0.024313 -24.062263
v 19.678011 0.024543 -23.976200
v 19.619692 0.024691 -23.867752
v 19.599596 0.024741 -23.747538
v 19.619692 0.024691 -23.627323
v 19.678011 0.024543 -23.518875
v 19.768847 0.024313 -23.432812
v 19.883307 0.024023 -23.377556
v 20.010185 0.023701 -23.358515
v 20.137064 0.023380 -23.377556
v 20.251524 0.023090 -23.432812
v 20.342360 0.022860 -23.518875
v 20.400679 0.022712 -23.627323
v 20.420774 0.022661 -23.747538
v 20.049391 0.972477 -23.760315
v 20.043192 0.972492 -23.771841
v 20.033539 0.972517 -23.780989
v 20.021374 0.972548 -23.786861
v 20.007887 0.972582 -23.788885
v 19.994402 0.972616 -23.786861
v 19.982237 0.972647 -23.780989
v 19.972582 0.972671 -23.771841
v 19.966383 0.972687 -23.760315
v 19.964249 0.972692 -23.747538
v 19.966383 0.972687 -23.734760
v 19.972582 0.972671 -23.723234
v 19.982237 0.972647 -23.714087
v 19.994402 0.972616 -23.708214
v 20.007887 0.972582 -23.706190
v 20.021374 0.972548 -23.708214
v 20.033539 0.972517 -23.714087
v 20.043192 0.972492 -23.723234
v 20.049391 0.972477 -23.734760
v 20.051527 0.972471 -23.747538
v 20.010185 0.023701 -23.747538
v 20.042318 0.916925 -23.758097
v 20.044083 0.916920 -23.747538
v 20.042318 0.916925 -23.736980
v 20.037195 0.916938 -23.727455
v 20.029219 0.916958 -23.719896
v 20.019165 0.916983 -23.715044
v 20.008022 0.917011 -23.713371
v 19.996880 0.917040 -23.715044
v 19.986826 0.917065 -23.719896
v 19.978848 0.917085 -23.727455
v 19.973726 0.917098 -23.736980
v 19.971962 0.917103 -23.747538
v 19.973726 0.917098 -23.758097
v 19.978848 0.917085 -23.767620
v 19.986826 0.917065 -23.775179
v 19.996880 0.917040 -23.780031
v 20.008022 0.917011 -23.781704
v 20.019165 0.916983 -23.780031
v 20.029219 0.916958 -23.775179
v 20.037195 0.916938 -23.767620
v 20.044619 0.879388 -23.758776
v 20.046497 0.879383 -23.747538
v 20.044619 0.879388 -23.736300
v 20.039167 0.879401 -23.726160
v 20.030674 0.879423 -23.718115
v 20.019974 0.879450 -23.712950
v 20.008112 0.879480 -23.711168
v 19.996252 0.879510 -23.712950
v 19.985552 0.879537 -23.718115
v 19.977058 0.879559 -23.726160
v 19.971607 0.879573 -23.736300
v 19.969728 0.879577 -23.747538
v 19.971607 0.879573 -23.758776
v 19.977058 0.879559 -23.768915
v 19.985552 0.879537 -23.776960
v 19.996252 0.879510 -23.782125
v 20.008114 0.879480 -23.783907
v 20.019974 0.879450 -23.782125
v 20.030674 0.879423 -23.776960
v 20.039167 0.879401 -23.768915
v 19.867235 0.609454 -23.703966
v 19.859951 0.609473 -23.747538
v 19.867235 0.609454 -23.791109
v 19.888372 0.609401 -23.830416
v 19.921295 0.609318 -23.861609
v 19.962780 0.609213 -23.881638
v 20.008768 0.609096 -23.888538
v 20.054754 0.608979 -23.881638
v 20.096239 0.608874 -23.861609
v 20.129164 0.608791 -23.830416
v 20.150301 0.608737 -23.791109
v 20.157585 0.608719 -23.747538
v 20.150301 0.608737 -23.703966
v 20.129164 0.608791 -23.664660
v 20.096239 0.608874 -23.633467
v 20.054754 0.608979 -23.613438
v 20.008768 0.609096 -23.606537
v 19.962780 0.609213 -23.613438
v 19.921295 0.609318 -23.633467
v 19.888372 0.609401 -23.664660
v 19.759907 0.294718 -23.670691
v 19.747059 0.294751 -23.747538
v 19.759907 0.294718 -23.824385
v 19.797188 0.294623 -23.893711
v 19.855253 0.294477 -23.948729
v 19.928423 0.294291 -23.984051
v 20.009531 0.294086 -23.996222
v 20.090639 0.293880 -23.984051
v 20.163807 0.293695 -23.948729
v 20.221874 0.293548 -23.893711
v 20.259155 0.293453 -23.824385
v 20.272001 0.293421 -23.747538
v 20.259155 0.293453 -23.670691
v 20.221874 0.293548 -23.601364
v 20.163807 0.293695 -23.546349
v 20.090639 0.293880 -23.511024
v 20.009531 0.294086 -23.498854
v 19.928423 0.294291 -23.511024
v 19.855253 0.294477 -23.546349
v 19.797188 0.294623 -23.601364
v 19.585318 0.000000 -23.316351
v 20.437361 0.000000 -23.316351
v 19.585318 0.025462 -23.316351
v 20.437361 0.025462 -23.316351
v 19.585318 0.025462 -24.168394
v 20.437361 0.025462 -24.168394
v 19.585318 0.000000 -24.168394
v 20.437361 0.000000 -24.168394
vt 0.375000 0.312500
vt 0.387500 0.312500
vt 0.387500 0.354271
vt 0.375000 0.354271
vt 0.400000 0.312500
vt 0.400000 0.354271
vt 0.412500 0.312500
vt 0.412500 0.354271
vt 0.425000 0.312500
vt 0.425000 0.354271
vt 0.437500 0.312500
vt 0.437500 0.354271
vt 0.450000 0.312500
vt 0.450000 0.354271
vt 0.462500 0.312500
vt 0.462500 0.354271
vt 0.475000 0.312500
vt 0.475000 0.354271
vt 0.487500 0.312500
vt 0.487500 0.354271
vt 0.500000 0.312500
vt 0.500000 0.354271
vt 0.512500 0.312500
vt 0.512500 0.354271
vt 0.525000 0.312500
vt 0.525000 0.354271
vt 0.537500 0.312500
vt 0.537500 0.354271
vt 0.550000 0.312500
vt 0.550000 0.354271
vt 0.562500 0.312500
vt 0.562500 0.354271
vt 0.575000 0.312500
vt 0.575000 0.354271
vt 0.587500 0.312500
vt 0.587500 0.354271
vt 0.600000 0.312500
vt 0.600000 0.354271
vt 0.612500 0.312500
vt 0.612500 0.354271
vt 0.625000 0.312500
vt 0.625000 0.354271
vt 0.626409 0.064408
vt 0.648603 0.107966
vt 0.500000 0.150000
vt 0.591842 0.029841
vt 0.548284 0.007647
vt 0.500000 -0.000000
vt 0.451716 0.007647
vt 0.408159 0.029841
vt 0.373591 0.064409
vt 0.351397 0.107966
vt 0.343750 0.156250
vt 0.351397 0.204534
vt 0.373591 0.248091
vt 0.408159 0.282659
vt 0.451716 0.304853
vt 0.500000 0.312500
vt 0.548284 0.304853
vt 0.591841 0.282659
vt 0.626409 0.248091
vt 0.648603 0.204534
vt 0.656250 0.156250
vt 0.612500 0.563127
vt 0.625000 0.563127
vt 0.625000 0.688440
vt 0.612500 0.688440
vt 0.600000 0.563127
vt 0.600000 0.688440
vt 0.587500 0.563127
vt 0.587500 0.688440
vt 0.575000 0.563127
vt 0.575000 0.688440
vt 0.562500 0.563127
vt 0.562500 0.688440
vt 0.550000 0.563127
vt 0.550000 0.688440
vt 0.537500 0.563127
vt 0.537500 0.688440
vt 0.525000 0.563127
vt 0.525000 0.688440
vt 0.512500 0.563127
vt 0.512500 0.688440
vt 0.500000 0.563127
vt 0.500000 0.688440
vt 0.487500 0.563127
vt 0.487500 0.688440
vt 0.475000 0.563127
vt 0.475000 0.688440
vt 0.462500 0.563127
vt 0.462500 0.688440
vt 0.450000 0.563127
vt 0.450000 0.688440
vt 0.437500 0.563127
vt 0.437500 0.688440
vt 0.425000 0.563127
vt 0.425000 0.688440
vt 0.412500 0.563127
vt 0.412500 0.688440
vt 0.400000 0.563127
vt 0.400000 0.688440
vt 0.387500 0.563127
vt 0.387500 0.688440
vt 0.375000 0.563127
vt 0.375000 0.688440
vt 0.612500 0.437813
vt 0.625000 0.437813
vt 0.600000 0.437813
vt 0.587500 0.437813
vt 0.575000 0.437813
vt 0.562500 0.437813
vt 0.550000 0.437813
vt 0.537500 0.437813
vt 0.525000 0.437813
vt 0.512500 0.437813
vt 0.500000 0.437813
vt 0.487500 0.437813
vt 0.475000 0.437813
vt 0.462500 0.437813
vt 0.450000 0.437813
vt 0.437500 0.437813
vt 0.425000 0.437813
vt 0.412500 0.437813
vt 0.400000 0.437813
vt 0.387500 0.437813
vt 0.375000 0.437813
vt 0.487500 0.396042
vt 0.500000 0.396042
vt 0.475000 0.396042
vt 0.462500 0.396042
vt 0.450000 0.396042
vt 0.437500 0.396042
vt 0.425000 0.396042
vt 0.412500 0.396042
vt 0.400000 0.396042
vt 0.387500 0.396042
vt 0.375000 0.396042
vt 0.612500 0.396042
vt 0.625000 0.396042
vt 0.600000 0.396042
vt 0.587500 0.396042
vt 0.575000 0.396042
vt 0.562500 0.396042
vt 0.550000 0.396042
vt 0.537500 0.396042
vt 0.525000 0.396042
vt 0.512500 0.396042
vt 0.375000 0.000000
vt 0.625000 0.000000
vt 0.625000 0.250000
vt 0.375000 0.250000
vt 0.625000 0.500000
vt 0.375000 0.500000
vt 0.625000 0.750000
vt 0.375000 0.750000
vt 0.625000 1.000000
vt 0.375000 1.000000
vt 0.875000 0.000000
vt 0.875000 0.250000
vt 0.125000 0.000000
vt 0.125000 0.250000
vn 0.830702 0.479532 -0.282814
vn 0.700553 0.474299 -0.533166
vn 0.719243 0.422488 -0.551536
vn 0.855053 0.427627 -0.293291
vn 0.503921 0.467950 -0.726007
vn 0.515727 0.416310 -0.748806
vn 0.263446 0.462838 -0.846391
vn 0.268732 0.411361 -0.870956
vn 0.001560 0.460677 -0.887566
vn 0.000989 0.409225 -0.912433
vn -0.260709 0.462117 -0.847631
vn -0.267036 0.410498 -0.871885
vn -0.502198 0.466595 -0.728070
vn -0.514796 0.414677 -0.750352
vn -0.700161 0.472453 -0.535315
vn -0.719328 0.420231 -0.553149
vn -0.831464 0.477393 -0.284189
vn -0.856017 0.424974 -0.294332
vn -0.877641 0.479318 -0.000000
vn -0.904325 0.426845 -0.000000
vn -0.831467 0.477389 0.284187
vn -0.856018 0.424974 0.294331
vn -0.700157 0.472457 0.535318
vn -0.719321 0.420235 0.553155
vn -0.502193 0.466592 0.728075
vn -0.514794 0.414671 0.750356
vn -0.260710 0.462111 0.847634
vn -0.267049 0.410492 0.871884
vn 0.001560 0.460677 0.887566
vn 0.000981 0.409225 0.912433
vn 0.263461 0.462833 0.846389
vn 0.268745 0.411358 0.870954
vn 0.503932 0.467945 0.726002
vn 0.515735 0.416306 0.748803
vn 0.700548 0.474303 0.533168
vn 0.719239 0.422491 0.551540
vn 0.830699 0.479536 0.282815
vn 0.855052 0.427629 0.293291
vn 0.876415 0.481557 0.000000
vn 0.903005 0.429630 0.000001
vn -0.002533 -0.999997 -0.000000
vn -0.002533 -0.999997 -0.000001
vn -0.002533 -0.999997 0.000000
vn -0.002533 -0.999997 0.000000
vn -0.002533 -0.999997 0.000000
vn -0.002533 -0.999997 0.000000
vn -0.002534 -0.999997 0.000000
vn -0.002534 -0.999997 0.000000
vn -0.002534 -0.999997 -0.000000
vn -0.002534 -0.999997 -0.000000
vn -0.002533 -0.999997 0.000000
vn -0.002534 -0.999997 0.000000
vn -0.002534 -0.999997 0.000000
vn -0.002534 -0.999997 -0.000000
vn -0.002534 -0.999997 -0.000000
vn -0.002533 -0.999997 0.000000
vn -0.002533 -0.999997 -0.000000
vn -0.002533 -0.999997 -0.000000
vn -0.002533 -0.999997 0.000000
vn -0.002533 -0.999997 0.000001
vn -0.002533 -0.999997 0.000000
vn 0.998347 -0.057483 0.000001
vn 0.944252 -0.057281 -0.324202
vn 0.937657 -0.132225 -0.321428
vn 0.991141 -0.132814 -0.000004
vn 0.944256 -0.057285 0.324191
vn 0.937662 -0.132230 0.321411
vn 0.791929 -0.056824 0.607963
vn 0.786827 -0.130750 0.603165
vn 0.565644 -0.056406 0.822718
vn 0.562267 -0.129126 0.816812
vn 0.293440 -0.056320 0.954317
vn 0.291458 -0.128115 0.947966
vn -0.000004 -0.056747 0.998389
vn -0.000729 -0.128172 0.991752
vn -0.293481 -0.057736 0.954220
vn -0.292830 -0.129462 0.947360
vn -0.565657 -0.059166 0.822515
vn -0.563224 -0.131763 0.815731
vn -0.791788 -0.060708 0.607771
vn -0.787044 -0.134465 0.602063
vn -0.944026 -0.061916 0.324008
vn -0.937304 -0.136604 0.320625
vn -0.998053 -0.062375 -0.000001
vn -0.990514 -0.137415 0.000003
vn -0.944024 -0.061917 -0.324013
vn -0.937304 -0.136590 -0.320630
vn -0.791779 -0.060703 -0.607784
vn -0.787050 -0.134438 -0.602062
vn -0.565623 -0.059157 -0.822540
vn -0.563166 -0.131754 -0.815772
vn -0.293501 -0.057728 -0.954214
vn -0.292830 -0.129457 -0.947361
vn -0.000058 -0.056744 -0.998389
vn -0.000813 -0.128172 -0.991752
vn 0.293346 -0.056318 -0.954346
vn 0.291300 -0.128116 -0.948014
vn 0.565675 -0.056394 -0.822698
vn 0.562319 -0.129109 -0.816779
vn 0.791943 -0.056809 -0.607947
vn 0.786865 -0.130730 -0.603120
vn 0.930666 0.365870 0.000000
vn 0.880751 0.364039 -0.302908
vn 0.880742 0.364055 0.302916
vn 0.739737 0.359412 0.568869
vn 0.529428 0.353829 0.771046
vn 0.275344 0.349360 0.895619
vn 0.000546 0.347380 0.937724
vn -0.274447 0.348372 0.896279
vn -0.529142 0.351913 0.772117
vn -0.740183 0.356739 0.569970
vn -0.881792 0.360898 0.303636
vn -0.931971 0.362534 -0.000000
vn -0.881786 0.360906 -0.303645
vn -0.740157 0.356754 -0.569995
vn -0.529123 0.351918 -0.772128
vn -0.274445 0.348373 -0.896279
vn 0.000547 0.347374 -0.937726
vn 0.275349 0.349359 -0.895618
vn 0.529426 0.353835 -0.771044
vn 0.739750 0.359400 -0.568860
vn -0.937435 0.348161 -0.000001
vn -0.887090 0.346590 0.304872
vn -0.887089 0.346590 -0.304874
vn -0.744884 0.342623 -0.572500
vn -0.532691 0.338008 -0.775881
vn -0.276305 0.334597 -0.900944
vn 0.000671 0.333662 -0.942693
vn 0.277434 0.335624 -0.900215
vn 0.533200 0.339968 -0.774674
vn 0.744588 0.345344 -0.571250
vn 0.886103 0.349812 -0.304061
vn 0.936166 0.351558 0.000001
vn 0.886102 0.349814 0.304063
vn 0.744582 0.345346 0.571257
vn 0.533201 0.339964 0.774675
vn 0.277440 0.335624 0.900213
vn 0.000655 0.333664 0.942692
vn -0.276329 0.334592 0.900939
vn -0.532698 0.337999 0.775880
vn -0.744884 0.342620 0.572502
vn 0.000000 0.000000 1.000000
vn 0.000000 0.000000 1.000000
vn 0.000000 0.000000 1.000000
vn 0.000000 0.000000 1.000000
vn 0.000000 1.000000 0.000000
vn 0.000000 1.000000 0.000000
vn 0.000000 1.000000 0.000000
vn 0.000000 1.000000 0.000000
vn 0.000000 0.000000 -1.000000
vn 0.000000 0.000000 -1.000000
vn 0.000000 0.000000 -1.000000
vn 0.000000 0.000000 -1.000000
vn 0.000000 -1.000000 0.000000
vn 0.000000 -1.000000 0.000000
vn 0.000000 -1.000000 0.000000
vn 0.000000 -1.000000 0.000000
vn 1.000000 0.000000 0.000000
vn 1.000000 0.000000 0.000000
vn 1.000000 0.000000 0.000000
vn 1.000000 0.000000 0.000000
vn -1.000000 0.000000 0.000000
vn -1.000000 0.000000 0.000000
vn -1.000000 0.000000 0.000000
vn -1.000000 0.000000 0.000000
s 1
g polySurface86
usemtl initialShadingGroup
f 1/1/1 2/2/2 111/3/3 112/4/4
f 2/2/2 3/5/5 110/6/6 111/3/3
f 3/5/5 4/7/7 109/8/8 110/6/6
f 4/7/7 5/9/9 108/10/10 109/8/8
f 5/9/9 6/11/11 107/12/12 108/10/10
f 6/11/11 7/13/13 106/14/14 107/12/12
f 7/13/13 8/15/15 105/16/16 106/14/14
f 8/15/15 9/17/17 104/18/18 105/16/16
f 9/17/17 10/19/19 103/20/20 104/18/18
f 10/19/19 11/21/21 102/22/22 103/20/20
f 11/21/21 12/23/23 121/24/24 102/22/22
f 12/23/23 13/25/25 120/26/26 121/24/24
f 13/25/25 14/27/27 119/28/28 120/26/26
f 14/27/27 15/29/29 118/30/30 119/28/28
f 15/29/29 16/31/31 117/32/32 118/30/30
f 16/31/31 17/33/33 116/34/34 117/32/32
f 17/33/33 18/35/35 115/36/36 116/34/34
f 18/35/35 19/37/37 114/38/38 115/36/36
f 19/37/37 20/39/39 113/40/40 114/38/38
f 20/39/39 1/41/1 112/42/4 113/40/40
s 2
f 2/43/41 1/44/42 41/45/43
f 3/46/44 2/43/41 41/45/43
f 4/47/45 3/46/44 41/45/43
f 5/48/46 4/47/45 41/45/43
f 6/49/47 5/48/46 41/45/43
f 7/50/48 6/49/47 41/45/43
f 8/51/49 7/50/48 41/45/43
f 9/52/50 8/51/49 41/45/43
f 10/53/51 9/52/50 41/45/43
f 11/54/52 10/53/51 41/45/43
f 12/55/53 11/54/52 41/45/43
f 13/56/54 12/55/53 41/45/43
f 14/57/55 13/56/54 41/45/43
f 15/58/56 14/57/55 41/45/43
f 16/59/57 15/58/56 41/45/43
f 17/60/58 16/59/57 41/45/43
f 18/61/59 17/60/58 41/45/43
f 19/62/60 18/61/59 41/45/43
f 20/63/61 19/62/60 41/45/43
f 1/44/42 20/63/61 41/45/43
s 1
f 43/64/62 42/65/63 21/66/64 40/67/65
f 44/68/66 43/64/62 40/67/65 39/69/67
f 45/70/68 44/68/66 39/69/67 38/71/69
f 46/72/70 45/70/68 38/71/69 37/73/71
f 47/74/72 46/72/70 37/73/71 36/75/73
f 48/76/74 47/74/72 36/75/73 35/77/75
f 49/78/76 48/76/74 35/77/75 34/79/77
f 50/80/78 49/78/76 34/79/77 33/81/79
f 51/82/80 50/80/78 33/81/79 32/83/81
f 52/84/82 51/82/80 32/83/81 31/85/83
f 53/86/84 52/84/82 31/85/83 30/87/85
f 54/88/86 53/86/84 30/87/85 29/89/87
f 55/90/88 54/88/86 29/89/87 28/91/89
f 56/92/90 55/90/88 28/91/89 27/93/91
f 57/94/92 56/92/90 27/93/91 26/95/93
f 58/96/94 57/94/92 26/95/93 25/97/95
f 59/98/96 58/96/94 25/97/95 24/99/97
f 60/100/98 59/98/96 24/99/97 23/101/99
f 61/102/100 60/100/98 23/101/99 22/103/101
f 42/104/63 61/102/100 22/103/101 21/105/64
f 63/106/102 62/107/103 42/65/63 43/64/62
f 64/108/104 63/106/102 43/64/62 44/68/66
f 65/109/105 64/108/104 44/68/66 45/70/68
f 66/110/106 65/109/105 45/70/68 46/72/70
f 67/111/107 66/110/106 46/72/70 47/74/72
f 68/112/108 67/111/107 47/74/72 48/76/74
f 69/113/109 68/112/108 48/76/74 49/78/76
f 70/114/110 69/113/109 49/78/76 50/80/78
f 71/115/111 70/114/110 50/80/78 51/82/80
f 72/116/112 71/115/111 51/82/80 52/84/82
f 73/117/113 72/116/112 52/84/82 53/86/84
f 74/118/114 73/117/113 53/86/84 54/88/86
f 75/119/115 74/118/114 54/88/86 55/90/88
f 76/120/116 75/119/115 55/90/88 56/92/90
f 77/121/117 76/120/116 56/92/90 57/94/92
f 78/122/118 77/121/117 57/94/92 58/96/94
f 79/123/119 78/122/118 58/96/94 59/98/96
f 80/124/120 79/123/119 59/98/96 60/100/98
f 81/125/121 80/124/120 60/100/98 61/102/100
f 62/126/103 81/125/121 61/102/100 42/104/63
f 83/127/122 82/128/123 72/116/112 73/117/113
f 84/129/124 83/127/122 73/117/113 74/118/114
f 85/130/125 84/129/124 74/118/114 75/119/115
f 86/131/126 85/130/125 75/119/115 76/120/116
f 87/132/127 86/131/126 76/120/116 77/121/117
f 88/133/128 87/132/127 77/121/117 78/122/118
f 89/134/129 88/133/128 78/122/118 79/123/119
f 90/135/130 89/134/129 79/123/119 80/124/120
f 91/136/131 90/135/130 80/124/120 81/125/121
f 92/137/132 91/136/131 81/125/121 62/126/103
f 93/138/133 92/139/132 62/107/103 63/106/102
f 94/140/134 93/138/133 63/106/102 64/108/104
f 95/141/135 94/140/134 64/108/104 65/109/105
f 96/142/136 95/141/135 65/109/105 66/110/106
f 97/143/137 96/142/136 66/110/106 67/111/107
f 98/144/138 97/143/137 67/111/107 68/112/108
f 99/145/139 98/144/138 68/112/108 69/113/109
f 100/146/140 99/145/139 69/113/109 70/114/110
f 101/147/141 100/146/140 70/114/110 71/115/111
f 82/128/123 101/147/141 71/115/111 72/116/112
f 103/20/20 102/22/22 82/128/123 83/127/122
f 104/18/18 103/20/20 83/127/122 84/129/124
f 105/16/16 104/18/18 84/129/124 85/130/125
f 106/14/14 105/16/16 85/130/125 86/131/126
f 107/12/12 106/14/14 86/131/126 87/132/127
f 108/10/10 107/12/12 87/132/127 88/133/128
f 109/8/8 108/10/10 88/133/128 89/134/129
f 110/6/6 109/8/8 89/134/129 90/135/130
f 111/3/3 110/6/6 90/135/130 91/136/131
f 112/4/4 111/3/3 91/136/131 92/137/132
f 113/40/40 112/42/4 92/139/132 93/138/133
f 114/38/38 113/40/40 93/138/133 94/140/134
f 115/36/36 114/38/38 94/140/134 95/141/135
f 116/34/34 115/36/36 95/141/135 96/142/136
f 117/32/32 116/34/34 96/142/136 97/143/137
f 118/30/30 117/32/32 97/143/137 98/144/138
f 119/28/28 118/30/30 98/144/138 99/145/139
f 120/26/26 119/28/28 99/145/139 100/146/140
f 121/24/24 120/26/26 100/146/140 101/147/141
f 102/22/22 121/24/24 101/147/141 82/128/123
s off
f 122/148/142 123/149/143 125/150/144 124/151/145
f 124/151/146 125/150/147 127/152/148 126/153/149
f 126/153/150 127/152/151 129/154/152 128/155/153
f 128/155/154 129/154/155 123/156/156 122/157/157
f 123/149/158 129/158/159 127/159/160 125/150/161
f 128/160/162 122/148/163 124/151/164 126/161/165
