# This file uses centimeters as units for non-parametric coordinates.

mtllib Cafe_Building.mtl
g default
v 2.787081 0.000000 -19.740143
v 8.528616 0.000000 -19.740143
v 2.787081 5.741535 -19.740143
v 8.528616 5.741535 -19.740143
v 2.787081 5.741535 -25.481678
v 8.528616 5.741535 -25.481678
v 2.787081 0.000000 -25.481678
v 8.528616 0.000000 -25.481678
v 4.876853 -0.002849 -19.616126
v 6.702616 -0.002849 -19.616126
v 4.876853 2.323077 -19.616126
v 6.702616 2.323077 -19.616126
v 4.876853 2.323077 -19.859477
v 6.702616 2.323077 -19.859477
v 4.876853 -0.002849 -19.859477
v 6.702616 -0.002849 -19.859477
v 3.259253 3.415446 -19.183004
v 8.306461 3.415446 -19.183004
v 3.259253 4.812667 -19.183004
v 8.306461 4.812667 -19.183004
v 3.259253 4.812667 -19.246478
v 8.306461 4.812667 -19.246478
v 3.259253 3.415446 -19.246478
v 8.306461 3.415446 -19.246478
v 7.795082 3.998248 -21.150681
v 7.781507 4.024890 -21.150681
v 7.760364 4.046033 -21.150681
v 7.733721 4.059608 -21.150681
v 7.704188 4.064285 -21.150681
v 7.674655 4.059608 -21.150681
v 7.648013 4.046033 -21.150681
v 7.626870 4.024890 -21.150681
v 7.613295 3.998248 -21.150681
v 7.608618 3.968715 -21.150681
v 7.613295 3.939182 -21.150681
v 7.626870 3.912540 -21.150681
v 7.648013 3.891397 -21.150681
v 7.674655 3.877822 -21.150681
v 7.704188 3.873144 -21.150681
v 7.733721 3.877822 -21.150681
v 7.760363 3.891397 -21.150681
v 7.781507 3.912540 -21.150681
v 7.795082 3.939182 -21.150681
v 7.799759 3.968715 -21.150681
v 7.795082 3.998248 -19.189551
v 7.781507 4.024890 -19.189551
v 7.760364 4.046033 -19.189551
v 7.733721 4.059608 -19.189551
v 7.704188 4.064285 -19.189551
v 7.674655 4.059608 -19.189551
v 7.648013 4.046033 -19.189551
v 7.626870 4.024890 -19.189551
v 7.613295 3.998248 -19.189551
v 7.608618 3.968715 -19.189551
v 7.613295 3.939182 -19.189551
v 7.626870 3.912540 -19.189551
v 7.648013 3.891397 -19.189551
v 7.674655 3.877822 -19.189551
v 7.704188 3.873144 -19.189551
v 7.733721 3.877822 -19.189551
v 7.760363 3.891397 -19.189551
v 7.781507 3.912540 -19.189551
v 7.795082 3.939182 -19.189551
v 7.799759 3.968715 -19.189551
v 7.704188 3.968715 -21.150681
v 7.704188 3.968715 -19.189551
v 3.810688 3.998248 -21.150681
v 3.797113 4.024890 -21.150681
v 3.775970 4.046033 -21.150681
v 3.749328 4.059608 -21.150681
v 3.719795 4.064285 -21.150681
v 3.690262 4.059608 -21.150681
v 3.663620 4.046033 -21.150681
v 3.642477 4.024890 -21.150681
v 3.628902 3.998248 -21.150681
v 3.624225 3.968715 -21.150681
v 3.628902 3.939182 -21.150681
v 3.642477 3.912540 -21.150681
v 3.663620 3.891397 -21.150681
v 3.690262 3.877822 -21.150681
v 3.719795 3.873144 -21.150681
v 3.749328 3.877822 -21.150681
v 3.775970 3.891397 -21.150681
v 3.797113 3.912540 -21.150681
v 3.810688 3.939182 -21.150681
v 3.815366 3.968715 -21.150681
v 3.810688 3.998248 -19.189551
v 3.797113 4.024890 -19.189551
v 3.775970 4.046033 -19.189551
v 3.749328 4.059608 -19.189551
v 3.719795 4.064285 -19.189551
v 3.690262 4.059608 -19.189551
v 3.663620 4.046033 -19.189551
v 3.642477 4.024890 -19.189551
v 3.628902 3.998248 -19.189551
v 3.624225 3.968715 -19.189551
v 3.628902 3.939182 -19.189551
v 3.642477 3.912540 -19.189551
v 3.663620 3.891397 -19.189551
v 3.690262 3.877822 -19.189551
v 3.719795 3.873144 -19.189551
v 3.749328 3.877822 -19.189551
v 3.775970 3.891397 -19.189551
v 3.797113 3.912540 -19.189551
v 3.810688 3.939182 -19.189551
v 3.815366 3.968715 -19.189551
v 3.719795 3.968715 -21.150681
v 3.719795 3.968715 -19.189551
v 2.791971 5.740010 -19.760875
v 8.512657 5.740010 -19.760875
v 3.192219 6.958971 -22.051732
v 8.112410 6.958971 -22.051732
v 3.192219 6.958971 -23.227391
v 8.112410 6.958971 -23.227391
v 2.791971 5.740010 -25.518248
v 8.512657 5.740010 -25.518248
vt 0.375000 0.000000
vt 0.625000 0.000000
vt 0.375000 0.250000
vt 0.625000 0.250000
vt 0.375000 0.500000
vt 0.625000 0.500000
vt 0.375000 0.750000
vt 0.625000 0.750000
vt 0.375000 1.000000
vt 0.625000 1.000000
vt 0.875000 0.000000
vt 0.875000 0.250000
vt 0.125000 0.000000
vt 0.125000 0.250000
vt 0.375000 0.000000
vt 0.625000 0.000000
vt 0.625000 0.250000
vt 0.375000 0.250000
vt 0.625000 0.500000
vt 0.375000 0.500000
vt 0.625000 0.750000
vt 0.375000 0.750000
vt 0.625000 1.000000
vt 0.375000 1.000000
vt 0.875000 0.000000
vt 0.875000 0.250000
vt 0.125000 0.000000
vt 0.125000 0.250000
vt 0.375000 0.000000
vt 0.625000 0.000000
vt 0.625000 0.250000
vt 0.375000 0.250000
vt 0.625000 0.500000
vt 0.375000 0.500000
vt 0.625000 0.750000
vt 0.375000 0.750000
vt 0.625000 1.000000
vt 0.375000 1.000000
vt 0.875000 0.000000
vt 0.875000 0.250000
vt 0.125000 0.000000
vt 0.125000 0.250000
vt 0.375000 0.312500
vt 0.387500 0.312500
vt 0.387500 0.688440
vt 0.375000 0.688440
vt 0.400000 0.312500
vt 0.400000 0.688440
vt 0.412500 0.312500
vt 0.412500 0.688440
vt 0.425000 0.312500
vt 0.425000 0.688440
vt 0.437500 0.312500
vt 0.437500 0.688440
vt 0.450000 0.312500
vt 0.450000 0.688440
vt 0.462500 0.312500
vt 0.462500 0.688440
vt 0.475000 0.312500
vt 0.475000 0.688440
vt 0.487500 0.312500
vt 0.487500 0.688440
vt 0.500000 0.312500
vt 0.500000 0.688440
vt 0.512500 0.312500
vt 0.512500 0.688440
vt 0.525000 0.312500
vt 0.525000 0.688440
vt 0.537500 0.312500
vt 0.537500 0.688440
vt 0.550000 0.312500
vt 0.550000 0.688440
vt 0.562500 0.312500
vt 0.562500 0.688440
vt 0.575000 0.312500
vt 0.575000 0.688440
vt 0.587500 0.312500
vt 0.587500 0.688440
vt 0.600000 0.312500
vt 0.600000 0.688440
vt 0.612500 0.312500
vt 0.612500 0.688440
vt 0.625000 0.312500
vt 0.625000 0.688440
vt 0.626409 0.064408
vt 0.648603 0.107966
vt 0.500000 0.150000
vt 0.591842 0.029841
vt 0.548284 0.007647
vt 0.500000 -0.000000
vt 0.451716 0.007647
vt 0.408159 0.029841
vt 0.373591 0.064409
vt 0.351397 0.107966
vt 0.343750 0.156250
vt 0.351397 0.204534
vt 0.373591 0.248091
vt 0.408159 0.282659
vt 0.451716 0.304853
vt 0.500000 0.312500
vt 0.548284 0.304853
vt 0.591841 0.282659
vt 0.626409 0.248091
vt 0.648603 0.204534
vt 0.656250 0.156250
vt 0.648603 0.892034
vt 0.626409 0.935591
vt 0.500000 0.837500
vt 0.591841 0.970159
vt 0.548284 0.992353
vt 0.500000 1.000000
vt 0.451716 0.992353
vt 0.408159 0.970159
vt 0.373591 0.935591
vt 0.351397 0.892034
vt 0.343750 0.843750
vt 0.351397 0.795466
vt 0.373591 0.751909
vt 0.408159 0.717341
vt 0.451716 0.695147
vt 0.500000 0.687500
vt 0.548284 0.695147
vt 0.591842 0.717341
vt 0.626409 0.751908
vt 0.648603 0.795466
vt 0.656250 0.843750
vt 0.375000 0.312500
vt 0.387500 0.312500
vt 0.387500 0.688440
vt 0.375000 0.688440
vt 0.400000 0.312500
vt 0.400000 0.688440
vt 0.412500 0.312500
vt 0.412500 0.688440
vt 0.425000 0.312500
vt 0.425000 0.688440
vt 0.437500 0.312500
vt 0.437500 0.688440
vt 0.450000 0.312500
vt 0.450000 0.688440
vt 0.462500 0.312500
vt 0.462500 0.688440
vt 0.475000 0.312500
vt 0.475000 0.688440
vt 0.487500 0.312500
vt 0.487500 0.688440
vt 0.500000 0.312500
vt 0.500000 0.688440
vt 0.512500 0.312500
vt 0.512500 0.688440
vt 0.525000 0.312500
vt 0.525000 0.688440
vt 0.537500 0.312500
vt 0.537500 0.688440
vt 0.550000 0.312500
vt 0.550000 0.688440
vt 0.562500 0.312500
vt 0.562500 0.688440
vt 0.575000 0.312500
vt 0.575000 0.688440
vt 0.587500 0.312500
vt 0.587500 0.688440
vt 0.600000 0.312500
vt 0.600000 0.688440
vt 0.612500 0.312500
vt 0.612500 0.688440
vt 0.625000 0.312500
vt 0.625000 0.688440
vt 0.626409 0.064408
vt 0.648603 0.107966
vt 0.500000 0.150000
vt 0.591842 0.029841
vt 0.548284 0.007647
vt 0.500000 -0.000000
vt 0.451716 0.007647
vt 0.408159 0.029841
vt 0.373591 0.064409
vt 0.351397 0.107966
vt 0.343750 0.156250
vt 0.351397 0.204534
vt 0.373591 0.248091
vt 0.408159 0.282659
vt 0.451716 0.304853
vt 0.500000 0.312500
vt 0.548284 0.304853
vt 0.591841 0.282659
vt 0.626409 0.248091
vt 0.648603 0.204534
vt 0.656250 0.156250
vt 0.648603 0.892034
vt 0.626409 0.935591
vt 0.500000 0.837500
vt 0.591841 0.970159
vt 0.548284 0.992353
vt 0.500000 1.000000
vt 0.451716 0.992353
vt 0.408159 0.970159
vt 0.373591 0.935591
vt 0.351397 0.892034
vt 0.343750 0.843750
vt 0.351397 0.795466
vt 0.373591 0.751909
vt 0.408159 0.717341
vt 0.451716 0.695147
vt 0.500000 0.687500
vt 0.548284 0.695147
vt 0.591842 0.717341
vt 0.626409 0.751908
vt 0.648603 0.795466
vt 0.656250 0.843750
vt 0.375000 0.000000
vt 0.625000 0.000000
vt 0.625000 0.250000
vt 0.375000 0.250000
vt 0.625000 0.500000
vt 0.375000 0.500000
vt 0.625000 0.750000
vt 0.375000 0.750000
vt 0.625000 1.000000
vt 0.375000 1.000000
vt 0.875000 0.000000
vt 0.875000 0.250000
vt 0.125000 0.000000
vt 0.125000 0.250000
vn 0.000000 0.000000 1.000000
vn 0.000000 0.000000 1.000000
vn 0.000000 0.000000 1.000000
vn 0.000000 0.000000 1.000000
vn 0.000000 1.000000 0.000000
vn 0.000000 1.000000 0.000000
vn 0.000000 1.000000 0.000000
vn 0.000000 1.000000 0.000000
vn 0.000000 0.000000 -1.000000
vn 0.000000 0.000000 -1.000000
vn 0.000000 0.000000 -1.000000
vn 0.000000 0.000000 -1.000000
vn 0.000000 -1.000000 0.000000
vn 0.000000 -1.000000 0.000000
vn 0.000000 -1.000000 0.000000
vn 0.000000 -1.000000 0.000000
vn 1.000000 0.000000 0.000000
vn 1.000000 0.000000 0.000000
vn 1.000000 0.000000 0.000000
vn 1.000000 0.000000 0.000000
vn -1.000000 0.000000 0.000000
vn -1.000000 0.000000 0.000000
vn -1.000000 0.000000 0.000000
vn -1.000000 0.000000 0.000000
vn 0.000000 0.000000 1.000000
vn 0.000000 0.000000 1.000000
vn 0.000000 0.000000 1.000000
vn 0.000000 0.000000 1.000000
vn 0.000000 1.000000 0.000000
vn 0.000000 1.000000 0.000000
vn 0.000000 1.000000 0.000000
vn 0.000000 1.000000 0.000000
vn 0.000000 0.000000 -1.000000
vn 0.000000 0.000000 -1.000000
vn 0.000000 0.000000 -1.000000
vn 0.000000 0.000000 -1.000000
vn 0.000000 -1.000000 0.000000
vn 0.000000 -1.000000 0.000000
vn 0.000000 -1.000000 0.000000
vn 0.000000 -1.000000 0.000000
vn 1.000000 0.000000 0.000000
vn 1.000000 0.000000 0.000000
vn 1.000000 0.000000 0.000000
vn 1.000000 0.000000 0.000000
vn -1.000000 0.000000 0.000000
vn -1.000000 0.000000 0.000000
vn -1.000000 0.000000 0.000000
vn -1.000000 0.000000 0.000000
vn 0.000000 0.000000 1.000000
vn 0.000000 0.000000 1.000000
vn 0.000000 0.000000 1.000000
vn 0.000000 0.000000 1.000000
vn 0.000000 1.000000 0.000000
vn 0.000000 1.000000 0.000000
vn 0.000000 1.000000 0.000000
vn 0.000000 1.000000 0.000000
vn 0.000000 0.000000 -1.000000
vn 0.000000 0.000000 -1.000000
vn 0.000000 0.000000 -1.000000
vn 0.000000 0.000000 -1.000000
vn 0.000000 -1.000000 0.000000
vn 0.000000 -1.000000 0.000000
vn 0.000000 -1.000000 0.000000
vn 0.000000 -1.000000 0.000000
vn 1.000000 0.000000 0.000000
vn 1.000000 0.000000 0.000000
vn 1.000000 0.000000 0.000000
vn 1.000000 0.000000 0.000000
vn -1.000000 0.000000 0.000000
vn -1.000000 0.000000 0.000000
vn -1.000000 0.000000 0.000000
vn -1.000000 0.000000 0.000000
vn 0.951057 0.309015 0.000000
vn 0.809017 0.587786 0.000000
vn 0.809017 0.587786 0.000000
vn 0.951057 0.309015 0.000000
vn 0.587787 0.809016 0.000000
vn 0.587787 0.809016 0.000000
vn 0.309017 0.951057 0.000000
vn 0.309017 0.951057 0.000000
vn 0.000000 1.000000 0.000000
vn 0.000000 1.000000 0.000000
vn -0.309015 0.951057 0.000000
vn -0.309015 0.951057 0.000000
vn -0.587787 0.809016 0.000000
vn -0.587787 0.809016 0.000000
vn -0.809017 0.587786 0.000000
vn -0.809017 0.587786 0.000000
vn -0.951057 0.309015 0.000000
vn -0.951057 0.309015 0.000000
vn -1.000000 0.000000 0.000000
vn -1.000000 0.000000 0.000000
vn -0.951057 -0.309017 0.000000
vn -0.951057 -0.309017 0.000000
vn -0.809017 -0.587785 0.000000
vn -0.809017 -0.587785 0.000000
vn -0.587787 -0.809016 0.000000
vn -0.587787 -0.809016 0.000000
vn -0.309014 -0.951057 0.000000
vn -0.309014 -0.951057 0.000000
vn 0.000000 -1.000000 0.000000
vn 0.000000 -1.000000 0.000000
vn 0.309019 -0.951056 0.000000
vn 0.309019 -0.951056 0.000000
vn 0.587787 -0.809016 0.000000
vn 0.587787 -0.809016 0.000000
vn 0.809013 -0.587791 0.000000
vn 0.809013 -0.587791 0.000000
vn 0.951057 -0.309017 0.000000
vn 0.951057 -0.309017 0.000000
vn 1.000000 0.000000 0.000000
vn 1.000000 0.000000 0.000000
vn -0.000003 0.000000 -1.000000
vn 0.000000 0.000000 -1.000000
vn 0.000000 0.000000 -1.000000
vn -0.000000 0.000000 -1.000000
vn 0.000003 0.000000 -1.000000
vn 0.000000 0.000000 -1.000000
vn 0.000000 0.000000 -1.000000
vn 0.000003 0.000000 -1.000000
vn 0.000003 0.000000 -1.000000
vn 0.000000 0.000000 -1.000000
vn 0.000000 0.000000 -1.000000
vn 0.000003 0.000000 -1.000000
vn 0.000003 0.000000 -1.000000
vn 0.000000 0.000000 -1.000000
vn 0.000000 0.000000 -1.000000
vn 0.000000 0.000000 -1.000000
vn 0.000000 0.000000 -1.000000
vn 0.000000 0.000000 -1.000000
vn -0.000001 0.000000 -1.000000
vn -0.000001 0.000000 -1.000000
vn 0.000000 0.000000 -1.000000
vn 0.000001 0.000000 1.000000
vn 0.000001 0.000000 1.000000
vn 0.000000 0.000000 1.000000
vn -0.000001 0.000000 1.000000
vn -0.000001 0.000000 1.000000
vn 0.000000 0.000000 1.000000
vn 0.000000 0.000000 1.000000
vn 0.000001 0.000000 1.000000
vn 0.000001 0.000000 1.000000
vn 0.000000 0.000000 1.000000
vn 0.000000 0.000000 1.000000
vn 0.000001 0.000000 1.000000
vn -0.000001 0.000000 1.000000
vn -0.000000 0.000000 1.000000
vn 0.000001 0.000000 1.000000
vn 0.000000 0.000000 1.000000
vn 0.000000 0.000000 1.000000
vn 0.000001 0.000000 1.000000
vn -0.000000 0.000000 1.000000
vn -0.000001 0.000000 1.000000
vn 0.000000 0.000000 1.000000
vn 0.951057 0.309015 0.000000
vn 0.809017 0.587785 0.000000
vn 0.809017 0.587785 0.000000
vn 0.951057 0.309015 0.000000
vn 0.587785 0.809017 0.000000
vn 0.587785 0.809017 0.000000
vn 0.309017 0.951057 0.000000
vn 0.309017 0.951057 0.000000
vn 0.000000 1.000000 0.000000
vn 0.000000 1.000000 0.000000
vn -0.309017 0.951057 0.000000
vn -0.309017 0.951057 0.000000
vn -0.587785 0.809017 0.000000
vn -0.587785 0.809017 0.000000
vn -0.809019 0.587783 0.000000
vn -0.809019 0.587783 0.000000
vn -0.951057 0.309015 0.000000
vn -0.951057 0.309015 0.000000
vn -1.000000 0.000000 0.000000
vn -1.000000 0.000000 0.000000
vn -0.951057 -0.309017 0.000000
vn -0.951057 -0.309017 0.000000
vn -0.809019 -0.587783 0.000000
vn -0.809019 -0.587783 0.000000
vn -0.587785 -0.809017 0.000000
vn -0.587785 -0.809017 0.000000
vn -0.309017 -0.951057 0.000000
vn -0.309017 -0.951057 0.000000
vn 0.000000 -1.000000 0.000000
vn 0.000000 -1.000000 0.000000
vn 0.309017 -0.951057 0.000000
vn 0.309017 -0.951057 0.000000
vn 0.587785 -0.809017 0.000000
vn 0.587785 -0.809017 0.000000
vn 0.809017 -0.587785 0.000000
vn 0.809017 -0.587785 0.000000
vn 0.951057 -0.309017 0.000000
vn 0.951057 -0.309017 0.000000
vn 1.000000 0.000000 0.000000
vn 1.000000 0.000000 0.000000
vn -0.000003 0.000000 -1.000000
vn 0.000000 0.000000 -1.000000
vn 0.000000 0.000000 -1.000000
vn -0.000000 0.000000 -1.000000
vn 0.000003 0.000000 -1.000000
vn 0.000000 0.000000 -1.000000
vn 0.000000 0.000000 -1.000000
vn 0.000003 0.000000 -1.000000
vn 0.000003 0.000000 -1.000000
vn 0.000000 0.000000 -1.000000
vn 0.000000 0.000000 -1.000000
vn 0.000003 0.000000 -1.000000
vn 0.000003 0.000000 -1.000000
vn 0.000000 0.000000 -1.000000
vn 0.000000 0.000000 -1.000000
vn 0.000000 0.000000 -1.000000
vn 0.000000 0.000000 -1.000000
vn 0.000000 0.000000 -1.000000
vn -0.000001 0.000000 -1.000000
vn -0.000001 0.000000 -1.000000
vn 0.000000 0.000000 -1.000000
vn 0.000001 0.000000 1.000000
vn 0.000001 0.000000 1.000000
vn 0.000000 0.000000 1.000000
vn -0.000001 0.000000 1.000000
vn -0.000001 0.000000 1.000000
vn 0.000000 0.000000 1.000000
vn 0.000000 0.000000 1.000000
vn 0.000001 0.000000 1.000000
vn 0.000001 0.000000 1.000000
vn 0.000000 0.000000 1.000000
vn 0.000000 0.000000 1.000000
vn 0.000001 0.000000 1.000000
vn -0.000001 0.000000 1.000000
vn -0.000000 0.000000 1.000000
vn 0.000001 0.000000 1.000000
vn 0.000000 0.000000 1.000000
vn 0.000000 0.000000 1.000000
vn 0.000001 0.000000 1.000000
vn 0.000000 0.000000 1.000000
vn -0.000001 0.000000 1.000000
vn 0.000000 0.000000 1.000000
vn 0.000000 0.882805 0.469739
vn 0.000000 0.882805 0.469739
vn 0.000000 0.882805 0.469739
vn 0.000000 0.882805 0.469739
vn 0.000000 1.000000 0.000000
vn 0.000000 1.000000 0.000000
vn 0.000000 1.000000 0.000000
vn 0.000000 1.000000 0.000000
vn 0.000000 0.882805 -0.469739
vn 0.000000 0.882805 -0.469739
vn 0.000000 0.882805 -0.469739
vn 0.000000 0.882805 -0.469739
vn 0.000000 -1.000000 0.000000
vn 0.000000 -1.000000 0.000000
vn 0.000000 -1.000000 0.000000
vn 0.000000 -1.000000 0.000000
vn 0.950094 0.311964 0.000000
vn 0.950094 0.311964 0.000000
vn 0.950094 0.311964 0.000000
vn 0.950094 0.311964 0.000000
vn -0.950094 0.311965 0.000000
vn -0.950094 0.311965 0.000000
vn -0.950094 0.311965 0.000000
vn -0.950094 0.311965 0.000000
s off
g pCube45
usemtl initialShadingGroup
f 1/1/1 2/2/2 4/4/3 3/3/4
f 3/3/5 4/4/6 6/6/7 5/5/8
f 5/5/9 6/6/10 8/8/11 7/7/12
f 7/7/13 8/8/14 2/10/15 1/9/16
f 2/2/17 8/11/18 6/12/19 4/4/20
f 7/13/21 1/1/22 3/3/23 5/14/24
f 9/15/25 10/16/26 12/17/27 11/18/28
f 11/18/29 12/17/30 14/19/31 13/20/32
f 13/20/33 14/19/34 16/21/35 15/22/36
f 15/22/37 16/21/38 10/23/39 9/24/40
f 10/16/41 16/25/42 14/26/43 12/17/44
f 15/27/45 9/15/46 11/18/47 13/28/48
f 17/29/49 18/30/50 20/31/51 19/32/52
f 19/32/53 20/31/54 22/33/55 21/34/56
f 21/34/57 22/33/58 24/35/59 23/36/60
f 23/36/61 24/35/62 18/37/63 17/38/64
f 18/30/65 24/39/66 22/40/67 20/31/68
f 23/41/69 17/29/70 19/32/71 21/42/72
s 1
f 25/43/73 26/44/74 46/45/75 45/46/76
f 26/44/74 27/47/77 47/48/78 46/45/75
f 27/47/77 28/49/79 48/50/80 47/48/78
f 28/49/79 29/51/81 49/52/82 48/50/80
f 29/51/81 30/53/83 50/54/84 49/52/82
f 30/53/83 31/55/85 51/56/86 50/54/84
f 31/55/85 32/57/87 52/58/88 51/56/86
f 32/57/87 33/59/89 53/60/90 52/58/88
f 33/59/89 34/61/91 54/62/92 53/60/90
f 34/61/91 35/63/93 55/64/94 54/62/92
f 35/63/93 36/65/95 56/66/96 55/64/94
f 36/65/95 37/67/97 57/68/98 56/66/96
f 37/67/97 38/69/99 58/70/100 57/68/98
f 38/69/99 39/71/101 59/72/102 58/70/100
f 39/71/101 40/73/103 60/74/104 59/72/102
f 40/73/103 41/75/105 61/76/106 60/74/104
f 41/75/105 42/77/107 62/78/108 61/76/106
f 42/77/107 43/79/109 63/80/110 62/78/108
f 43/79/109 44/81/111 64/82/112 63/80/110
f 44/81/111 25/83/73 45/84/76 64/82/112
s 2
f 26/85/113 25/86/114 65/87/115
f 27/88/116 26/85/113 65/87/115
f 28/89/117 27/88/116 65/87/115
f 29/90/118 28/89/117 65/87/115
f 30/91/119 29/90/118 65/87/115
f 31/92/120 30/91/119 65/87/115
f 32/93/121 31/92/120 65/87/115
f 33/94/122 32/93/121 65/87/115
f 34/95/123 33/94/122 65/87/115
f 35/96/124 34/95/123 65/87/115
f 36/97/125 35/96/124 65/87/115
f 37/98/126 36/97/125 65/87/115
f 38/99/127 37/98/126 65/87/115
f 39/100/128 38/99/127 65/87/115
f 40/101/129 39/100/128 65/87/115
f 41/102/130 40/101/129 65/87/115
f 42/103/131 41/102/130 65/87/115
f 43/104/132 42/103/131 65/87/115
f 44/105/133 43/104/132 65/87/115
f 25/86/114 44/105/133 65/87/115
s 3
f 45/106/134 46/107/135 66/108/136
f 46/107/135 47/109/137 66/108/136
f 47/109/137 48/110/138 66/108/136
f 48/110/138 49/111/139 66/108/136
f 49/111/139 50/112/140 66/108/136
f 50/112/140 51/113/141 66/108/136
f 51/113/141 52/114/142 66/108/136
f 52/114/142 53/115/143 66/108/136
f 53/115/143 54/116/144 66/108/136
f 54/116/144 55/117/145 66/108/136
f 55/117/145 56/118/146 66/108/136
f 56/118/146 57/119/147 66/108/136
f 57/119/147 58/120/148 66/108/136
f 58/120/148 59/121/149 66/108/136
f 59/121/149 60/122/150 66/108/136
f 60/122/150 61/123/151 66/108/136
f 61/123/151 62/124/152 66/108/136
f 62/124/152 63/125/153 66/108/136
f 63/125/153 64/126/154 66/108/136
f 64/126/154 45/106/134 66/108/136
s 4
f 67/127/155 68/128/156 88/129/157 87/130/158
f 68/128/156 69/131/159 89/132/160 88/129/157
f 69/131/159 70/133/161 90/134/162 89/132/160
f 70/133/161 71/135/163 91/136/164 90/134/162
f 71/135/163 72/137/165 92/138/166 91/136/164
f 72/137/165 73/139/167 93/140/168 92/138/166
f 73/139/167 74/141/169 94/142/170 93/140/168
f 74/141/169 75/143/171 95/144/172 94/142/170
f 75/143/171 76/145/173 96/146/174 95/144/172
f 76/145/173 77/147/175 97/148/176 96/146/174
f 77/147/175 78/149/177 98/150/178 97/148/176
f 78/149/177 79/151/179 99/152/180 98/150/178
f 79/151/179 80/153/181 100/154/182 99/152/180
f 80/153/181 81/155/183 101/156/184 100/154/182
f 81/155/183 82/157/185 102/158/186 101/156/184
f 82/157/185 83/159/187 103/160/188 102/158/186
f 83/159/187 84/161/189 104/162/190 103/160/188
f 84/161/189 85/163/191 105/164/192 104/162/190
f 85/163/191 86/165/193 106/166/194 105/164/192
f 86/165/193 67/167/155 87/168/158 106/166/194
s 5
f 68/169/195 67/170/196 107/171/197
f 69/172/198 68/169/195 107/171/197
f 70/173/199 69/172/198 107/171/197
f 71/174/200 70/173/199 107/171/197
f 72/175/201 71/174/200 107/171/197
f 73/176/202 72/175/201 107/171/197
f 74/177/203 73/176/202 107/171/197
f 75/178/204 74/177/203 107/171/197
f 76/179/205 75/178/204 107/171/197
f 77/180/206 76/179/205 107/171/197
f 78/181/207 77/180/206 107/171/197
f 79/182/208 78/181/207 107/171/197
f 80/183/209 79/182/208 107/171/197
f 81/184/210 80/183/209 107/171/197
f 82/185/211 81/184/210 107/171/197
f 83/186/212 82/185/211 107/171/197
f 84/187/213 83/186/212 107/171/197
f 85/188/214 84/187/213 107/171/197
f 86/189/215 85/188/214 107/171/197
f 67/170/196 86/189/215 107/171/197
s 6
f 87/190/216 88/191/217 108/192/218
f 88/191/217 89/193/219 108/192/218
f 89/193/219 90/194/220 108/192/218
f 90/194/220 91/195/221 108/192/218
f 91/195/221 92/196/222 108/192/218
f 92/196/222 93/197/223 108/192/218
f 93/197/223 94/198/224 108/192/218
f 94/198/224 95/199/225 108/192/218
f 95/199/225 96/200/226 108/192/218
f 96/200/226 97/201/227 108/192/218
f 97/201/227 98/202/228 108/192/218
f 98/202/228 99/203/229 108/192/218
f 99/203/229 100/204/230 108/192/218
f 100/204/230 101/205/231 108/192/218
f 101/205/231 102/206/232 108/192/218
f 102/206/232 103/207/233 108/192/218
f 103/207/233 104/208/234 108/192/218
f 104/208/234 105/209/235 108/192/218
f 105/209/235 106/210/236 108/192/218
f 106/210/236 87/190/216 108/192/218
s off
f 109/211/237 110/212/238 112/213/239 111/214/240
f 111/214/241 112/213/242 114/215/243 113/216/244
f 113/216/245 114/215/246 116/217/247 115/218/248
f 115/218/249 116/217/250 110/219/251 109/220/252
f 110/212/253 116/221/254 114/222/255 112/213/256
f 115/223/257 109/211/258 111/214/259 113/224/260
